<svg width="115" height="115" viewBox="0 0 115 115" fill="none" xmlns="http://www.w3.org/2000/svg">
<circle cx="57.5" cy="57.5" r="57.5" fill="#563D7C"/>
<rect x="29.0804" y="29.1466" width="56.8391" height="56.8391" rx="10.5747" fill="white"/>
<path fill-rule="evenodd" clip-rule="evenodd" d="M44.2816 40.9771H62.7874C62.7874 40.9771 69.727 41.9684 69.727 49.8995C69.727 54.5259 67.4138 56.8391 67.4138 56.8391C67.4138 56.8391 71.0489 58.4914 71.0489 64.1092C71.0489 72.7012 63.4483 74.023 63.4483 74.023H44.2816V40.9771ZM62.1264 46.2644H49.569V54.1954H62.1264C62.1264 54.1954 64.4397 53.2041 64.4397 49.8995C64.4397 46.5949 62.1264 46.2644 62.1264 46.2644ZM49.569 68.7357V59.4828H62.1264C62.1264 59.4828 65.8937 59.4828 65.8937 64.1092C65.8937 68.7357 62.1264 68.7357 62.1264 68.7357H49.569Z" fill="#563D7C"/>
</svg>
