<svg width="115" height="115" viewBox="0 0 115 115" fill="none" xmlns="http://www.w3.org/2000/svg">
<circle cx="57.5" cy="57.5" r="57.5" fill="#0088CC"/>
<path d="M46.5948 49.3707L41.9022 52.8737C41.9022 52.8737 40.1518 49.193 35.6896 49.2387C31.3999 49.2826 28.2873 53.5348 28.2873 57.1697C28.2873 60.8046 31.1124 65.8277 35.6896 65.8276C39.9856 65.8275 41.9022 62.1925 41.9022 62.1925L47.0574 65.1006C47.0574 65.1006 44.3476 71.3794 35.6896 71.3794C27.7587 71.3794 22.0085 64.7466 22.0747 57.1697C22.144 49.2387 27.7586 43.6207 35.6896 43.6208C43.7238 43.621 46.5948 49.3707 46.5948 49.3707Z" fill="white"/>
<path d="M69.6609 46.4627L66.7529 51.6839C66.7529 51.6839 63.4483 49.2385 59.8132 49.2385C57.952 49.2385 56.1782 49.6902 56.1782 51.5514C56.1782 56.1781 70.3879 51.9648 70.3879 63.4483C70.3879 71.0488 63.4483 71.5115 59.8132 71.5115C51.8822 71.5115 48.2471 68.273 48.2471 68.273L50.8247 62.523C50.8247 62.523 55.1868 65.5632 59.8132 65.5632C61.796 65.5632 63.4483 65.2822 63.4483 63.448C63.4483 59.4827 49.3707 62.4569 49.3707 51.5514C49.3707 48.2471 52.0474 43.4885 59.8132 43.4885C66.8768 43.4885 69.6609 46.4627 69.6609 46.4627Z" fill="white"/>
<path d="M93.454 46.4627L90.546 51.6839C90.546 51.6839 87.2414 49.2385 83.6063 49.2385C81.7451 49.2385 79.9713 49.6902 79.9713 51.5514C79.9713 56.1781 94.181 51.9648 94.181 63.4483C94.181 71.0488 87.2414 71.5115 83.6063 71.5115C75.6753 71.5115 72.0402 68.273 72.0402 68.273L74.6178 62.523C74.6178 62.523 78.9799 65.5632 83.6063 65.5632C85.5891 65.5632 87.2414 65.2822 87.2414 63.448C87.2414 59.4827 73.1638 62.4569 73.1638 51.5514C73.1638 48.2471 75.8405 43.4885 83.6063 43.4885C90.6699 43.4885 93.454 46.4627 93.454 46.4627Z" fill="white"/>
</svg>
