<svg width="115" height="115" viewBox="0 0 115 115" fill="none" xmlns="http://www.w3.org/2000/svg">
<circle cx="57.5" cy="57.5" r="57.5" fill="#222222"/>
<path d="M33.7069 80.9627C33.7069 74.5749 38.8852 69.3966 45.273 69.3966H57.5V80.6323C57.5 87.2025 52.1737 92.5288 45.6035 92.5288H45.273C38.8852 92.5288 33.7069 87.3505 33.7069 80.9627Z" fill="#0ACF83"/>
<path d="M33.7069 57.7314C33.7069 51.2524 38.9592 46.0001 45.4382 46.0001H57.5V69.4628H45.4382C38.9592 69.4628 33.7069 64.2105 33.7069 57.7314Z" fill="#A259FF"/>
<path d="M33.7069 34.1365C33.7069 27.5844 39.0184 22.2729 45.5704 22.2729H57.5V46H45.5704C39.0184 46 33.7069 40.6885 33.7069 34.1365Z" fill="#F24E1E"/>
<path d="M57.5 22.2729H69.4296C75.9816 22.2729 81.2931 27.5844 81.2931 34.1365C81.2931 40.6885 75.9816 46 69.4296 46H57.5V22.2729Z" fill="#FF7262"/>
<circle cx="69.0661" cy="57.6321" r="11.5661" fill="#1ABCFE"/>
</svg>
