<svg width="115" height="115" viewBox="0 0 115 115" fill="none" xmlns="http://www.w3.org/2000/svg">
<circle cx="57.5" cy="57.5" r="57.5" fill="#24292E"/>
<path d="M26.6049 56.1166C26.6047 37.8089 43.7888 25.7145 57.6682 25.7143C71.5476 25.7141 88.7314 37.8078 88.7314 56.1169C88.7314 79.5791 67.9127 86.5191 66.2604 86.5191C65.615 86.5191 65.0047 85.1969 65.0047 85.1969C65.0047 85.1969 65.0047 76.2745 65.0047 74.6222C65.0047 71.9785 63.2863 70.6567 63.2863 70.6567C63.2863 70.6567 77.1656 69.9997 77.1656 56.1169C77.1656 48.8463 74.1914 47.194 74.1914 47.194C74.1914 47.194 75.5133 39.7124 74.1914 38.8664C71.8782 37.386 65.269 41.9067 65.269 41.9067C65.269 41.9067 62.2949 40.8599 57.338 40.9153C52.3811 40.9707 50.0679 41.9066 50.0679 41.9066C50.0679 41.9066 42.8827 37.0423 41.1455 38.8664C39.8236 40.2544 41.1454 47.194 41.1454 47.194C41.1454 47.194 37.8408 48.8459 37.8408 56.1166C37.8408 70.0024 52.0506 70.3262 52.0506 70.6567C49.0762 71.9785 52.2186 74.908 46.7633 75.3492C45.7719 75.4294 43.7203 74.4823 42.1369 73.3003C41.1455 72.5603 39.7394 70.1266 39.1627 69.6653C37.5104 68.3434 35.5277 68.3434 34.8667 69.3348C35.5277 70.3262 36.519 70.194 37.8409 72.309C39.1627 74.4239 39.2153 75.7649 40.4846 77.2659C41.3229 78.2572 43.4587 79.4407 44.4501 79.7774C45.4414 80.114 50.3983 79.9095 50.3983 79.9095L50.3983 85.1969C50.3983 85.1969 49.7374 86.5192 49.0762 86.5191C47.0938 86.5189 26.6052 79.5791 26.6049 56.1166Z" fill="white"/>
</svg>
