<svg width="186" height="186" viewBox="0 0 186 186" fill="none" xmlns="http://www.w3.org/2000/svg">
<g filter="url(#filter0_b_379_73)">
<circle cx="93" cy="93" r="93" fill="white" fill-opacity="0.14"/>
</g>
<path d="M130.104 65.5475L132.954 72.73L127.295 79.1859L122.474 69.9772L130.104 65.5475Z" fill="#2564BF"/>
<path d="M61.5482 64.2061L56.0286 75.3571L65.4469 83.6436L61.5482 64.2061Z" fill="#2564BF"/>
<path d="M95.351 87.4863C112.083 87.4863 125.646 74.6484 125.646 58.812C125.646 42.9757 112.083 30.1378 95.351 30.1378C78.6194 30.1378 65.0558 42.9757 65.0558 58.812C65.0558 74.6484 78.6194 87.4863 95.351 87.4863Z" fill="#3144F1"/>
<path d="M62.4985 80.7653C58.502 80.7653 55.5116 75.9862 55.3439 75.7766C55.2354 75.5966 55.2025 75.3811 55.2522 75.177C55.3019 74.9728 55.4303 74.7966 55.6094 74.6867C55.696 74.6308 55.793 74.5929 55.8946 74.5754C55.9962 74.5578 56.1003 74.5608 56.2007 74.5843C56.3011 74.6077 56.3957 74.6512 56.479 74.712C56.5623 74.7728 56.6324 74.8497 56.6854 74.9382C56.6854 74.9382 59.6059 79.4936 62.8897 79.1303C63.0973 79.1081 63.3051 79.1692 63.4676 79.3002C63.6301 79.4313 63.7339 79.6215 63.7561 79.829C63.7783 80.0365 63.7172 80.2444 63.5862 80.4069C63.4552 80.5694 63.265 80.6731 63.0574 80.6954C62.8731 80.7326 62.6863 80.756 62.4985 80.7653Z" fill="black"/>
<path d="M127.798 77.7182C127.604 77.7219 127.415 77.6544 127.267 77.5284C127.119 77.4025 127.022 77.2268 126.994 77.0345C126.967 76.8421 127.011 76.6464 127.118 76.484C127.224 76.3217 127.387 76.204 127.574 76.1531C129.093 75.8129 130.573 75.3165 131.99 74.6719C132.079 74.6178 132.179 74.5823 132.282 74.5678C132.385 74.5533 132.49 74.56 132.591 74.5874C132.692 74.6149 132.786 74.6625 132.867 74.7275C132.949 74.7925 133.017 74.8734 133.066 74.9654C133.118 75.0551 133.152 75.1543 133.166 75.2572C133.179 75.3601 133.172 75.4647 133.145 75.5648C133.117 75.6649 133.07 75.7586 133.006 75.8405C132.943 75.9223 132.863 75.9906 132.773 76.0413C131.223 76.7705 129.597 77.3236 127.924 77.6903L127.798 77.7182Z" fill="black"/>
<path d="M55.2041 112.444C60.5446 112.444 64.874 108.115 64.874 102.774C64.874 97.4335 60.5446 93.1042 55.2041 93.1042C49.8636 93.1042 45.5342 97.4335 45.5342 102.774C45.5342 108.115 49.8636 112.444 55.2041 112.444Z" fill="#E4AA6C"/>
<path d="M56.0565 106.323C58.31 106.323 60.1368 104.496 60.1368 102.242C60.1368 99.9888 58.31 98.1619 56.0565 98.1619C53.803 98.1619 51.9761 99.9888 51.9761 102.242C51.9761 104.496 53.803 106.323 56.0565 106.323Z" fill="#CC834C"/>
<path d="M55.2042 113.31C53.1164 113.312 51.0747 112.696 49.3376 111.537C47.6005 110.379 46.2461 108.732 45.4458 106.803C44.6456 104.875 44.4355 102.752 44.8421 100.705C45.2487 98.6568 46.2538 96.7756 47.7301 95.2993C49.2065 93.823 51.0876 92.8179 53.1354 92.4112C55.1833 92.0046 57.3057 92.2147 59.2341 93.015C61.1625 93.8152 62.8101 95.1696 63.9683 96.9067C65.1265 98.6439 65.7432 100.686 65.7405 102.773C65.7368 105.567 64.6255 108.244 62.6504 110.22C60.6753 112.195 57.9975 113.306 55.2042 113.31ZM55.2042 93.9839C53.4652 93.9811 51.7645 94.4942 50.3172 95.4584C48.87 96.4225 47.7412 97.7943 47.0738 99.4001C46.4064 101.006 46.2304 102.774 46.5679 104.48C46.9055 106.185 47.7415 107.753 48.9702 108.984C50.1989 110.214 51.765 111.053 53.4704 111.393C55.1757 111.733 56.9437 111.56 58.5506 110.895C60.1575 110.23 61.5311 109.104 62.4975 107.658C63.4639 106.212 63.9798 104.512 63.9798 102.773C63.9798 100.445 63.0557 98.2111 61.4103 96.5632C59.765 94.9152 57.5329 93.9876 55.2042 93.9839Z" fill="black"/>
<path d="M60.0671 100.817C59.9702 100.816 59.8751 100.791 59.7899 100.744C59.7048 100.698 59.632 100.632 59.578 100.552C57.8173 97.8827 53.178 98.0503 53.1221 98.0364C53.0452 98.0421 52.968 98.032 52.8953 98.0065C52.8226 97.981 52.7559 97.9407 52.6994 97.8882C52.643 97.8358 52.5981 97.7722 52.5674 97.7015C52.5367 97.6308 52.521 97.5545 52.5212 97.4774C52.5174 97.4003 52.5289 97.3232 52.555 97.2506C52.5811 97.1779 52.6212 97.1112 52.6731 97.054C52.7251 96.9969 52.7877 96.9506 52.8576 96.9178C52.9274 96.8849 53.0031 96.8661 53.0802 96.8626C53.3037 96.8626 58.4321 96.6949 60.5561 99.9089C60.5978 99.9721 60.6265 100.043 60.6406 100.117C60.6547 100.192 60.6539 100.268 60.6383 100.342C60.6227 100.416 60.5926 100.486 60.5497 100.549C60.5069 100.611 60.452 100.664 60.3884 100.705C60.2955 100.775 60.1832 100.814 60.0671 100.817Z" fill="black"/>
<path d="M54.2259 104.227C54.1488 104.227 54.0725 104.212 54.0013 104.182C53.9301 104.153 53.8654 104.11 53.8109 104.055C53.7564 104.001 53.7132 103.936 53.6837 103.865C53.6542 103.794 53.639 103.717 53.639 103.64C53.639 100.845 56.322 98.0506 56.4338 97.9528C56.5466 97.8635 56.6883 97.8187 56.832 97.827C56.9757 97.8353 57.1113 97.8962 57.2131 97.9979C57.3149 98.0997 57.3757 98.2353 57.384 98.379C57.3923 98.5227 57.3476 98.6644 57.2582 98.7773C57.2582 98.7773 54.7849 101.279 54.7849 103.64C54.7867 103.715 54.7737 103.79 54.7466 103.86C54.7196 103.931 54.6789 103.995 54.627 104.049C54.5751 104.104 54.5129 104.148 54.4441 104.178C54.3753 104.209 54.3012 104.225 54.2259 104.227Z" fill="black"/>
<path d="M133.304 112.444C138.644 112.444 142.974 108.115 142.974 102.774C142.974 97.4335 138.644 93.1042 133.304 93.1042C127.963 93.1042 123.634 97.4335 123.634 102.774C123.634 108.115 127.963 112.444 133.304 112.444Z" fill="#E4AA6C"/>
<path d="M132.94 106.49C135.371 106.49 137.342 104.52 137.342 102.089C137.342 99.6576 135.371 97.6869 132.94 97.6869C130.509 97.6869 128.539 99.6576 128.539 102.089C128.539 104.52 130.509 106.49 132.94 106.49Z" fill="#CC834C"/>
<path d="M133.304 113.31C131.216 113.312 129.174 112.696 127.437 111.537C125.7 110.379 124.346 108.732 123.546 106.803C122.745 104.875 122.535 102.752 122.942 100.705C123.348 98.6568 124.354 96.7756 125.83 95.2993C127.306 93.823 129.187 92.8179 131.235 92.4112C133.283 92.0046 135.405 92.2147 137.334 93.015C139.262 93.8152 140.91 95.1696 142.068 96.9067C143.226 98.6439 143.843 100.686 143.84 102.773C143.837 105.567 142.725 108.244 140.75 110.22C138.775 112.195 136.097 113.306 133.304 113.31ZM133.304 93.9839C131.566 93.9839 129.866 94.4994 128.421 95.4652C126.975 96.431 125.849 97.8037 125.184 99.4098C124.518 101.016 124.344 102.783 124.683 104.488C125.022 106.193 125.86 107.759 127.089 108.989C128.318 110.218 129.884 111.055 131.589 111.394C133.294 111.733 135.061 111.559 136.668 110.894C138.274 110.229 139.646 109.102 140.612 107.657C141.578 106.211 142.093 104.512 142.093 102.773C142.093 100.442 141.167 98.2066 139.519 96.5583C137.871 94.9099 135.635 93.9839 133.304 93.9839Z" fill="black"/>
<path d="M128.427 100.817C128.311 100.814 128.198 100.775 128.106 100.705C127.98 100.62 127.892 100.489 127.861 100.341C127.83 100.192 127.857 100.038 127.938 99.9089C130.076 96.6949 135.204 96.8626 135.414 96.8626C135.565 96.8733 135.705 96.9418 135.807 97.0537C135.908 97.1656 135.963 97.3124 135.959 97.4634C135.957 97.5399 135.94 97.6152 135.909 97.685C135.877 97.7548 135.832 97.8176 135.776 97.8696C135.72 97.9217 135.654 97.9621 135.583 97.9883C135.511 98.0146 135.434 98.0261 135.358 98.0224C135.358 98.0224 130.663 97.8687 128.902 100.538C128.852 100.62 128.782 100.688 128.699 100.737C128.616 100.785 128.523 100.813 128.427 100.817Z" fill="black"/>
<path d="M134.282 104.227C134.126 104.227 133.977 104.165 133.867 104.055C133.757 103.945 133.695 103.795 133.695 103.64C133.695 101.278 131.249 98.8047 131.221 98.7768C131.157 98.7254 131.103 98.6608 131.065 98.5874C131.027 98.5139 131.005 98.4332 131 98.3506C130.995 98.2679 131.008 98.1852 131.037 98.1078C131.067 98.0304 131.112 97.9602 131.171 97.9016C131.229 97.8431 131.3 97.7976 131.377 97.7681C131.454 97.7387 131.537 97.7259 131.62 97.7307C131.702 97.7355 131.783 97.7577 131.857 97.7959C131.93 97.8341 131.995 97.8874 132.046 97.9523C132.172 98.0641 134.841 100.747 134.841 103.64C134.843 103.715 134.83 103.79 134.802 103.86C134.775 103.93 134.735 103.994 134.683 104.049C134.631 104.103 134.569 104.147 134.5 104.178C134.431 104.208 134.357 104.225 134.282 104.227Z" fill="black"/>
<path d="M127.798 76.9219V113.966C127.798 122.924 124.242 131.516 117.912 137.854C111.582 144.192 102.995 147.758 94.0373 147.769C75.3124 147.769 60.9194 131.587 60.9054 112.918L60.1788 113.966V76.9219C60.1719 72.224 61.148 67.5766 63.0444 63.2785C64.9408 58.9803 67.7155 55.1265 71.1901 51.9647C78.1515 55.9015 86.0413 57.8992 94.0373 57.7498C102.02 57.8958 109.895 55.898 116.843 51.9647C117.234 52.3 117.583 52.6634 117.946 53.0267C121.083 56.1632 123.568 59.8893 125.259 63.9902C126.95 68.0912 127.813 72.4861 127.798 76.9219Z" fill="#E4AA6C"/>
<path d="M97.3491 147.281C96.4828 147.281 95.6024 147.378 94.7221 147.378C76.0531 147.378 58.9072 132.482 60.9055 113.576V76.5032C60.9038 71.8048 61.8837 67.1579 63.7823 62.8602C65.6809 58.5625 68.4563 54.7088 71.9308 51.546C72.9928 52.1888 72.7692 52.7897 73.971 53.3486C68.2697 59.4272 63.8679 67.5879 63.8679 76.5032V113.576C63.8679 131.364 77.5762 146.694 97.3491 147.281Z" fill="#F8D79C"/>
<path d="M71.2587 62.5429C72.2929 60.7517 72.1018 58.7053 70.8319 57.9722C69.562 57.239 67.6942 58.0967 66.6601 59.8879C65.6259 61.6791 65.817 63.7255 67.0869 64.4587C68.3568 65.1918 70.2246 64.3341 71.2587 62.5429Z" fill="white"/>
<path d="M73.4958 61.9001C73.9203 61.9001 74.2643 61.4122 74.2643 60.8102C74.2643 60.2082 73.9203 59.7202 73.4958 59.7202C73.0713 59.7202 72.7272 60.2082 72.7272 60.8102C72.7272 61.4122 73.0713 61.9001 73.4958 61.9001Z" fill="white"/>
<path d="M72.7831 64.2056C73.1304 64.2056 73.412 63.9241 73.412 63.5768C73.412 63.2295 73.1304 62.948 72.7831 62.948C72.4359 62.948 72.1543 63.2295 72.1543 63.5768C72.1543 63.9241 72.4359 64.2056 72.7831 64.2056Z" fill="white"/>
<path d="M118.547 52.5237L117.444 51.4617C116.317 52.1451 115.15 52.761 113.95 53.3062L114.397 53.8093C107.429 56.9689 99.7824 58.3378 92.151 57.7918C91.9083 57.7643 91.6646 57.8342 91.4733 57.9861C91.2821 58.1381 91.1589 58.3597 91.1309 58.6023C91.1173 58.7217 91.1276 58.8426 91.1611 58.958C91.1946 59.0734 91.2507 59.181 91.3261 59.2746C91.4014 59.3682 91.4946 59.4459 91.6003 59.5032C91.7059 59.5605 91.8218 59.5963 91.9414 59.6084C93.1027 59.7144 94.2689 59.7564 95.4348 59.7342C102.428 59.7625 109.338 58.2201 115.655 55.2207C120.506 61.2489 123.132 68.765 123.089 76.5027V113.533C123.07 122.025 119.857 130.198 114.089 136.43C108.321 142.661 100.42 146.495 91.9553 147.168C92.8497 147.238 93.744 147.266 94.6383 147.266C103.605 147.266 112.204 143.705 118.545 137.366C124.887 131.028 128.451 122.43 128.455 113.463V76.5027C128.466 72.0501 127.596 67.6392 125.896 63.5239C124.195 59.4087 121.698 55.6702 118.547 52.5237Z" fill="#CC834C"/>
<path d="M113.405 59.9162C114.215 59.9162 114.872 59.422 114.872 58.8123C114.872 58.2026 114.215 57.7084 113.405 57.7084C112.595 57.7084 111.938 58.2026 111.938 58.8123C111.938 59.422 112.595 59.9162 113.405 59.9162Z" fill="#F57A59"/>
<path d="M115.697 60.4886C116.021 60.4886 116.284 60.2884 116.284 60.0415C116.284 59.7945 116.021 59.5943 115.697 59.5943C115.373 59.5943 115.11 59.7945 115.11 60.0415C115.11 60.2884 115.373 60.4886 115.697 60.4886Z" fill="#F57A59"/>
<path d="M111.365 61.0757C111.782 61.0757 112.12 60.8192 112.12 60.5028C112.12 60.1864 111.782 59.9299 111.365 59.9299C110.948 59.9299 110.61 60.1864 110.61 60.5028C110.61 60.8192 110.948 61.0757 111.365 61.0757Z" fill="#F57A59"/>
<path d="M94.2747 148.565C88.2699 148.546 82.3726 146.971 77.1567 143.996C71.9408 141.021 67.5841 136.746 64.5105 131.587C64.4662 131.493 64.4412 131.391 64.437 131.287C64.4327 131.183 64.4493 131.079 64.4857 130.981C64.5222 130.883 64.5778 130.794 64.6492 130.718C64.7207 130.642 64.8065 130.581 64.9018 130.539C65.0676 130.468 65.2524 130.454 65.4271 130.499C65.6018 130.545 65.7562 130.647 65.866 130.791C69.5402 137.04 75.1688 141.906 81.8833 144.639C88.5978 147.372 96.025 147.819 103.019 145.911C110.013 144.004 116.184 139.848 120.582 134.085C124.979 128.322 127.358 121.271 127.351 114.022V76.9218C127.364 72.5835 126.516 68.2856 124.856 64.2774C123.196 60.2691 120.758 56.6302 117.681 53.5716L117.024 52.9428C110.073 56.7453 102.252 58.6717 94.3306 58.5323C86.4095 58.6678 78.5892 56.7417 71.6372 52.9428C68.3701 56.0261 65.7648 59.7421 63.9798 63.8645C62.1949 67.9869 61.2677 72.4295 61.2546 76.9218V113.966C61.2568 115.962 61.4344 117.954 61.7856 119.919C61.8057 120.02 61.8053 120.124 61.7844 120.225C61.7634 120.326 61.7224 120.422 61.6638 120.507C61.6051 120.591 61.53 120.663 61.4429 120.719C61.3558 120.774 61.2585 120.811 61.1568 120.827C61.0549 120.848 60.95 120.847 60.8482 120.827C60.7463 120.806 60.6497 120.765 60.5638 120.706C60.478 120.648 60.4047 120.573 60.3481 120.486C60.2916 120.398 60.253 120.301 60.2345 120.199C59.8602 118.142 59.6731 116.056 59.6756 113.966V76.9218C59.6761 72.1099 60.6791 67.3509 62.6207 62.948C64.5622 58.5452 67.3998 54.5952 70.9524 51.3497C71.0768 51.2341 71.2353 51.162 71.4042 51.1443C71.5731 51.1267 71.7432 51.1644 71.8887 51.2519C78.6971 55.1154 86.42 57.075 94.2468 56.9253C102.072 57.0752 109.793 55.1206 116.605 51.2659C116.751 51.1754 116.923 51.1347 117.094 51.1498C117.265 51.165 117.427 51.2351 117.555 51.3497L118.687 52.4257C121.91 55.6343 124.465 59.4501 126.204 63.6524C127.943 67.8546 128.831 72.36 128.818 76.9078V113.938C128.814 123.106 125.176 131.899 118.701 138.39C112.227 144.88 103.443 148.54 94.2747 148.565Z" fill="#181828"/>
<path d="M66.7372 124.943C67.5369 124.658 67.8093 123.372 67.3457 122.071C66.8821 120.769 65.8579 119.945 65.0583 120.23C64.2586 120.515 63.9861 121.801 64.4498 123.103C64.9134 124.404 65.9375 125.228 66.7372 124.943Z" fill="#FCE1B7"/>
<path opacity="0.89" d="M67.3054 119.444C67.7221 119.444 68.0599 119.107 68.0599 118.69C68.0599 118.273 67.7221 117.935 67.3054 117.935C66.8886 117.935 66.5508 118.273 66.5508 118.69C66.5508 119.107 66.8886 119.444 67.3054 119.444Z" fill="white"/>
<path opacity="0.59" d="M69.5972 123.958C70.0989 123.958 70.5055 123.551 70.5055 123.05C70.5055 122.548 70.0989 122.141 69.5972 122.141C69.0956 122.141 68.6889 122.548 68.6889 123.05C68.6889 123.551 69.0956 123.958 69.5972 123.958Z" fill="white"/>
<path d="M63.3647 128.303C63.2253 128.3 63.0891 128.261 62.9691 128.19C62.8492 128.119 62.7496 128.018 62.6799 127.898C62.3291 127.129 62.0665 126.322 61.8974 125.494C61.846 125.292 61.8757 125.078 61.9802 124.898C62.0846 124.718 62.2556 124.586 62.4564 124.53C62.6601 124.479 62.8758 124.511 63.0564 124.618C63.237 124.725 63.3679 124.9 63.4205 125.103C63.5835 125.781 63.8128 126.441 64.1053 127.073C64.158 127.162 64.1927 127.261 64.2072 127.363C64.2217 127.465 64.2158 127.569 64.1898 127.669C64.1638 127.77 64.1183 127.863 64.0558 127.946C63.9933 128.028 63.9151 128.097 63.8258 128.149C63.7072 128.22 63.5724 128.258 63.4345 128.261L63.3647 128.303Z" fill="#181828"/>
<path opacity="0.6" d="M64.944 101.851C65.4533 101.851 65.8662 101.438 65.8662 100.929C65.8662 100.419 65.4533 100.006 64.944 100.006C64.4346 100.006 64.0217 100.419 64.0217 100.929C64.0217 101.438 64.4346 101.851 64.944 101.851Z" fill="white"/>
<path opacity="0.3" d="M66.2014 99.1401C66.7107 99.1401 67.1237 98.7272 67.1237 98.2178C67.1237 97.7084 66.7107 97.2955 66.2014 97.2955C65.692 97.2955 65.2791 97.7084 65.2791 98.2178C65.2791 98.7272 65.692 99.1401 66.2014 99.1401Z" fill="white"/>
<path d="M63.812 104.423C64.3214 104.423 64.7343 104.01 64.7343 103.5C64.7343 102.991 64.3214 102.578 63.812 102.578C63.3027 102.578 62.8897 102.991 62.8897 103.5C62.8897 104.01 63.3027 104.423 63.812 104.423Z" fill="#FCE1B7"/>
<path opacity="0.6" d="M65.2233 107.413C65.7326 107.413 66.1455 107 66.1455 106.49C66.1455 105.981 65.7326 105.568 65.2233 105.568C64.7139 105.568 64.301 105.981 64.301 106.49C64.301 107 64.7139 107.413 65.2233 107.413Z" fill="white"/>
<path opacity="0.3" d="M66.4809 104.702C66.9903 104.702 67.4032 104.289 67.4032 103.779C67.4032 103.27 66.9903 102.857 66.4809 102.857C65.9716 102.857 65.5587 103.27 65.5587 103.779C65.5587 104.289 65.9716 104.702 66.4809 104.702Z" fill="white"/>
<path d="M64.0915 109.984C64.6008 109.984 65.0137 109.571 65.0137 109.062C65.0137 108.552 64.6008 108.139 64.0915 108.139C63.5821 108.139 63.1692 108.552 63.1692 109.062C63.1692 109.571 63.5821 109.984 64.0915 109.984Z" fill="white"/>
<path opacity="0.6" d="M118.086 127.185C118.596 127.185 119.008 126.772 119.008 126.263C119.008 125.754 118.596 125.341 118.086 125.341C117.577 125.341 117.164 125.754 117.164 126.263C117.164 126.772 117.577 127.185 118.086 127.185Z" fill="#F57A59"/>
<path opacity="0.3" d="M116.829 124.475C117.338 124.475 117.751 124.062 117.751 123.552C117.751 123.043 117.338 122.63 116.829 122.63C116.319 122.63 115.906 123.043 115.906 123.552C115.906 124.062 116.319 124.475 116.829 124.475Z" fill="#F57A59"/>
<path d="M119.204 129.757C119.714 129.757 120.127 129.344 120.127 128.835C120.127 128.326 119.714 127.913 119.204 127.913C118.695 127.913 118.282 128.326 118.282 128.835C118.282 129.344 118.695 129.757 119.204 129.757Z" fill="#F57A59"/>
<path opacity="0.6" d="M117.807 132.747C118.316 132.747 118.729 132.334 118.729 131.825C118.729 131.316 118.316 130.903 117.807 130.903C117.298 130.903 116.885 131.316 116.885 131.825C116.885 132.334 117.298 132.747 117.807 132.747Z" fill="#F57A59"/>
<path opacity="0.3" d="M116.549 130.037C117.058 130.037 117.471 129.624 117.471 129.114C117.471 128.605 117.058 128.192 116.549 128.192C116.04 128.192 115.627 128.605 115.627 129.114C115.627 129.624 116.04 130.037 116.549 130.037Z" fill="#F57A59"/>
<path d="M118.939 135.333C119.448 135.333 119.861 134.92 119.861 134.41C119.861 133.901 119.448 133.488 118.939 133.488C118.429 133.488 118.016 133.901 118.016 134.41C118.016 134.92 118.429 135.333 118.939 135.333Z" fill="#F57A59"/>
<path d="M120.392 109.257C119.872 109.27 119.366 109.093 118.967 108.759C118.568 108.426 118.305 107.958 118.226 107.444C118.148 106.93 118.259 106.405 118.539 105.968C118.819 105.53 119.249 105.209 119.749 105.065C120.017 104.977 120.3 104.943 120.581 104.967C120.862 104.991 121.135 105.072 121.384 105.205C121.635 105.336 121.857 105.516 122.037 105.734C122.217 105.953 122.351 106.205 122.432 106.477C122.517 106.745 122.547 107.027 122.523 107.306C122.498 107.586 122.419 107.859 122.289 108.108C122.16 108.357 121.982 108.578 121.767 108.759C121.551 108.939 121.303 109.075 121.035 109.16C120.826 109.221 120.609 109.253 120.392 109.257ZM120.001 105.848C119.751 105.923 119.53 106.071 119.365 106.272C119.2 106.474 119.099 106.719 119.074 106.978C119.049 107.237 119.101 107.498 119.225 107.727C119.348 107.956 119.536 108.144 119.766 108.266C119.996 108.387 120.257 108.438 120.516 108.412C120.775 108.385 121.02 108.282 121.22 108.116C121.421 107.95 121.567 107.728 121.641 107.478C121.715 107.229 121.713 106.963 121.635 106.714C121.587 106.549 121.504 106.395 121.394 106.263C121.283 106.131 121.147 106.023 120.993 105.946C120.842 105.865 120.677 105.815 120.506 105.798C120.336 105.781 120.164 105.798 120.001 105.848Z" fill="black"/>
<path d="M124.444 109.858C124.22 109.855 123.999 109.797 123.802 109.691C123.481 109.518 123.24 109.227 123.131 108.88C123.029 108.536 123.064 108.165 123.229 107.846C123.398 107.52 123.69 107.274 124.039 107.161C124.388 107.056 124.764 107.091 125.087 107.259C125.319 107.393 125.507 107.59 125.63 107.828C125.753 108.066 125.805 108.334 125.78 108.6C125.755 108.866 125.654 109.12 125.489 109.331C125.324 109.541 125.102 109.7 124.85 109.789C124.719 109.833 124.582 109.857 124.444 109.858ZM124.444 107.637C124.361 107.623 124.276 107.623 124.193 107.637C124.089 107.668 123.992 107.721 123.908 107.79C123.824 107.86 123.755 107.945 123.704 108.042C123.659 108.143 123.636 108.253 123.636 108.363C123.636 108.474 123.659 108.583 123.704 108.685C123.733 108.792 123.784 108.892 123.854 108.978C123.924 109.065 124.011 109.136 124.109 109.188C124.207 109.276 124.324 109.34 124.45 109.375C124.577 109.409 124.71 109.414 124.839 109.387C124.968 109.361 125.089 109.305 125.192 109.223C125.295 109.141 125.378 109.037 125.433 108.917C125.488 108.798 125.514 108.667 125.509 108.536C125.505 108.404 125.469 108.276 125.405 108.161C125.342 108.045 125.252 107.947 125.143 107.873C125.035 107.799 124.91 107.751 124.78 107.734C124.677 107.676 124.562 107.643 124.444 107.637Z" fill="black"/>
<path d="M123.131 105.345C122.955 105.344 122.783 105.301 122.628 105.219C122.37 105.083 122.175 104.853 122.083 104.576C122.022 104.434 121.991 104.281 121.993 104.127C121.995 103.972 122.03 103.82 122.094 103.68C122.159 103.54 122.252 103.415 122.368 103.313C122.484 103.211 122.62 103.134 122.767 103.088C122.915 103.042 123.07 103.027 123.223 103.045C123.377 103.062 123.525 103.112 123.658 103.19C123.791 103.268 123.906 103.374 123.996 103.499C124.085 103.625 124.148 103.768 124.179 103.919C124.283 104.189 124.283 104.488 124.179 104.758C124.111 104.886 124.017 104.999 123.905 105.09C123.792 105.182 123.662 105.249 123.522 105.289C123.398 105.339 123.264 105.358 123.131 105.345ZM123.131 103.57C123.066 103.557 123 103.557 122.935 103.57C122.851 103.594 122.774 103.635 122.706 103.691C122.639 103.746 122.584 103.814 122.544 103.891C122.482 104.058 122.482 104.242 122.544 104.408C122.57 104.493 122.614 104.571 122.671 104.638C122.729 104.706 122.8 104.76 122.879 104.8C122.957 104.843 123.042 104.87 123.131 104.88C123.219 104.889 123.308 104.88 123.393 104.854C123.478 104.828 123.557 104.785 123.625 104.728C123.692 104.67 123.748 104.6 123.787 104.52C123.822 104.438 123.839 104.35 123.839 104.262C123.839 104.173 123.822 104.085 123.787 104.003C123.734 103.836 123.619 103.696 123.466 103.612C123.36 103.568 123.244 103.554 123.131 103.57Z" fill="black"/>
<path d="M124.011 71.6122C123.858 71.6099 123.709 71.5665 123.578 71.4864C97.6567 54.1449 71.903 70.4104 71.6794 70.5781C71.5006 70.6898 71.2854 70.7276 71.0793 70.6832C70.8732 70.6389 70.6924 70.5159 70.5755 70.3405C70.4645 70.1639 70.4272 69.9508 70.4716 69.747C70.516 69.5432 70.6386 69.365 70.813 69.2506C71.0785 69.0829 97.6846 52.1746 124.486 70.1729C124.573 70.2292 124.648 70.3025 124.706 70.3885C124.764 70.4744 124.804 70.5713 124.824 70.6731C124.843 70.7749 124.842 70.8797 124.82 70.981C124.798 71.0824 124.756 71.1782 124.696 71.2628C124.622 71.375 124.519 71.4662 124.399 71.5274C124.28 71.5885 124.146 71.6178 124.011 71.6122Z" fill="#CC834C"/>
<path d="M66.8862 77.2573C66.3206 77.2449 65.7829 77.0087 65.391 76.6005C65.1217 76.1819 65.0068 75.6824 65.0663 75.1882C65.1258 74.694 65.3558 74.236 65.7168 73.8933C66.0778 73.5505 66.5471 73.3445 67.0437 73.3106C67.5403 73.2768 68.0332 73.4173 68.4373 73.708C68.8375 74.1111 69.0621 74.6561 69.0621 75.2241C69.0621 75.7922 68.8375 76.3372 68.4373 76.7403C68.0069 77.1073 67.4508 77.2927 66.8862 77.2573ZM66.8862 73.8058C66.5364 73.8044 66.1988 73.9342 65.9401 74.1696C65.6813 74.4051 65.5203 74.729 65.4888 75.0774C65.4901 75.4304 65.6249 75.7699 65.8661 76.0276C66.1032 76.2778 66.4299 76.4236 66.7744 76.4329C67.1228 76.4329 67.4569 76.2945 67.7032 76.0481C67.9496 75.8018 68.088 75.4677 68.088 75.1193C68.088 74.7709 67.9496 74.4368 67.7032 74.1905C67.4569 73.9442 67.1228 73.8058 66.7744 73.8058H66.8862Z" fill="black"/>
<path d="M67.4871 80.6951C67.3012 80.6925 67.1177 80.6528 66.9474 80.5784C66.777 80.5041 66.6232 80.3964 66.4949 80.2619C66.3249 80.1434 66.1833 79.9885 66.0805 79.8085C65.9777 79.6285 65.9162 79.4279 65.9005 79.2212C65.8848 79.0145 65.9153 78.8069 65.9898 78.6134C66.0642 78.42 66.1808 78.2455 66.331 78.1027C66.4813 77.9598 66.6614 77.8522 66.8584 77.7876C67.0554 77.723 67.2642 77.703 67.4699 77.7291C67.6755 77.7553 67.8728 77.8268 68.0474 77.9386C68.2219 78.0503 68.3695 78.1996 68.4792 78.3754C68.7323 78.6379 68.8727 78.989 68.8705 79.3536C68.8579 79.7193 68.7024 80.0655 68.4373 80.3178C68.1796 80.559 67.8401 80.6938 67.4871 80.6951ZM67.4871 78.4732C67.2722 78.4733 67.0661 78.5588 66.9142 78.7108C66.8343 78.7869 66.7703 78.8781 66.7257 78.979C66.6811 79.0799 66.6568 79.1886 66.6542 79.2989C66.6516 79.4092 66.6707 79.5189 66.7106 79.6218C66.7504 79.7247 66.8101 79.8187 66.8862 79.8986C66.9624 79.9784 67.0535 80.0424 67.1544 80.087C67.2553 80.1316 67.364 80.1559 67.4743 80.1585C67.5846 80.1611 67.6943 80.142 67.7972 80.1022C67.9001 80.0623 67.9942 80.0027 68.074 79.9265C68.2253 79.7658 68.3096 79.5534 68.3096 79.3326C68.3096 79.1119 68.2253 78.8994 68.074 78.7387C67.9206 78.5769 67.7099 78.4816 67.4871 78.4732Z" fill="black"/>
<path d="M70.6592 77.3969C70.3692 77.3891 70.0936 77.2688 69.8906 77.0616C69.7901 76.958 69.7112 76.8355 69.6584 76.7011C69.6056 76.5668 69.5801 76.4233 69.5832 76.279C69.5905 76.0637 69.6606 75.8552 69.785 75.6793C69.9094 75.5033 70.0825 75.3676 70.283 75.2889C70.4836 75.2101 70.7028 75.1918 70.9137 75.2361C71.1245 75.2805 71.3178 75.3856 71.4696 75.5384C71.6736 75.745 71.7879 76.0237 71.7879 76.314C71.7879 76.6043 71.6736 76.8829 71.4696 77.0895C71.3618 77.1921 71.2346 77.2722 71.0954 77.325C70.9562 77.3778 70.8079 77.4022 70.6592 77.3969ZM70.6592 75.6223C70.4856 75.624 70.3198 75.6943 70.198 75.8179C70.0761 75.9422 70.0019 76.1055 69.9884 76.279C69.9902 76.4608 70.06 76.6353 70.184 76.7681C70.3053 76.8944 70.4703 76.9694 70.6452 76.9777C70.8248 76.9658 70.996 76.8973 71.1343 76.7821C71.2572 76.6545 71.3259 76.4842 71.3259 76.307C71.3259 76.1298 71.2572 75.9595 71.1343 75.8319C71.01 75.71 70.8467 75.6358 70.6731 75.6223H70.6592Z" fill="black"/>
<path d="M113.516 117.642V115.629C113.516 114.61 113.112 113.633 112.391 112.912C111.67 112.192 110.693 111.787 109.674 111.787H78.9313C78.4243 111.783 77.9216 111.88 77.4521 112.071C76.9827 112.263 76.5558 112.545 76.196 112.902C75.8362 113.259 75.5506 113.684 75.3557 114.152C75.1609 114.62 75.0605 115.122 75.0606 115.629V117.656C75.0624 118.184 74.96 118.707 74.7593 119.195C74.5586 119.683 74.2635 120.127 73.8909 120.501C73.5183 120.874 73.0755 121.171 72.5881 121.374C72.1006 121.576 71.5779 121.68 71.0501 121.68C70.0553 121.68 69.1005 122.071 68.3919 122.769C67.6833 123.468 67.2779 124.417 67.2632 125.411V152.087C67.2632 153.57 67.8521 154.991 68.9003 156.04C69.9486 157.088 71.3703 157.677 72.8527 157.677L83.2632 160.863L94.6658 162.022L105.635 160.863L115.752 157.677C117.235 157.677 118.656 157.088 119.705 156.04C120.753 154.991 121.342 153.57 121.342 152.087V125.411C121.342 124.407 120.943 123.444 120.233 122.733C119.522 122.023 118.559 121.624 117.555 121.624C117.028 121.628 116.506 121.528 116.018 121.33C115.53 121.132 115.086 120.839 114.711 120.469C114.336 120.1 114.037 119.66 113.832 119.174C113.627 118.689 113.52 118.168 113.516 117.642Z" fill="#582C22"/>
<path d="M121.3 146.47V151.64C121.3 153.123 120.711 154.544 119.663 155.593C118.615 156.641 117.193 157.23 115.711 157.23L105.607 160.849L94.638 162.009L83.2354 160.849L72.8249 157.23C71.3425 157.23 69.9208 156.641 68.8725 155.593C67.8243 154.544 67.2354 153.123 67.2354 151.64V146.47C67.2354 147.952 67.8243 149.374 68.8725 150.422C69.9208 151.47 71.3425 152.059 72.8249 152.059H115.724C117.205 152.056 118.623 151.465 119.668 150.417C120.713 149.369 121.3 147.95 121.3 146.47Z" fill="#4A322F"/>
<path d="M82.2295 119.822H106.977V125.509C106.973 128.788 105.669 131.931 103.351 134.25C101.032 136.568 97.8891 137.872 94.6103 137.876C91.3291 137.876 88.1822 136.573 85.8607 134.254C83.5393 131.936 82.2332 128.79 82.2295 125.509V119.822Z" fill="#D32456"/>
<path opacity="0.4" d="M94.5959 132.692C98.7634 132.692 102.142 130.596 102.142 128.011C102.142 125.425 98.7634 123.329 94.5959 123.329C90.4285 123.329 87.0501 125.425 87.0501 128.011C87.0501 130.596 90.4285 132.692 94.5959 132.692Z" fill="#670118"/>
<path d="M105.705 125.83H84.2555C84.058 125.83 83.8624 125.791 83.6801 125.715C83.4977 125.639 83.3323 125.528 83.1932 125.388C83.0542 125.247 82.9444 125.081 82.8701 124.898C82.7958 124.715 82.7584 124.519 82.7603 124.321V119.277H106.697V124.866C106.69 125.125 106.582 125.37 106.397 125.55C106.212 125.73 105.964 125.831 105.705 125.83Z" fill="white"/>
<path d="M105.077 125.831H84.3954C83.9655 125.831 83.5532 125.66 83.2492 125.356C82.9452 125.052 82.7744 124.64 82.7744 124.21V123.441H106.698V124.21C106.698 124.64 106.527 125.052 106.223 125.356C105.919 125.66 105.507 125.831 105.077 125.831Z" fill="#D2F2FF"/>
<path d="M106.697 126.487H82.7743C82.6002 126.487 82.4331 126.418 82.3099 126.295C82.1868 126.172 82.1176 126.004 82.1176 125.83C82.1176 125.745 82.1346 125.66 82.1678 125.581C82.201 125.502 82.2496 125.431 82.3108 125.371C82.3719 125.311 82.4445 125.264 82.5241 125.232C82.6037 125.201 82.6888 125.186 82.7743 125.187H106.697C106.868 125.187 107.031 125.255 107.152 125.376C107.273 125.496 107.34 125.66 107.34 125.83C107.34 126.002 107.273 126.167 107.153 126.29C107.033 126.413 106.869 126.483 106.697 126.487Z" fill="#1B1B2B"/>
<path d="M94.736 138.099C91.22 138.099 87.8477 136.704 85.3589 134.221C82.8702 131.737 81.4683 128.368 81.4609 124.852V121.917C81.4646 120.959 81.847 120.04 82.525 119.362C83.2029 118.684 84.1213 118.302 85.0801 118.298H104.35C104.828 118.295 105.303 118.385 105.746 118.565C106.189 118.745 106.592 119.011 106.932 119.348C107.272 119.684 107.543 120.084 107.728 120.525C107.913 120.966 108.009 121.439 108.011 121.917V124.852C108.009 126.593 107.664 128.317 106.996 129.926C106.328 131.534 105.35 132.995 104.117 134.225C102.884 135.455 101.421 136.43 99.8119 137.095C98.2022 137.76 96.4775 138.101 94.736 138.099ZM85.108 120.031C84.6088 120.035 84.1311 120.235 83.7781 120.588C83.4252 120.941 83.2252 121.418 83.2216 121.917V124.852C83.3255 127.834 84.5834 130.66 86.7301 132.733C88.8768 134.807 91.7446 135.965 94.729 135.965C97.7134 135.965 100.581 134.807 102.728 132.733C104.875 130.66 106.132 127.834 106.236 124.852V121.917C106.233 121.418 106.033 120.941 105.68 120.588C105.327 120.235 104.849 120.035 104.35 120.031H85.108Z" fill="#1B1B2B"/>
<path d="M95.1827 116.845C95.0188 116.847 94.8585 116.797 94.7252 116.701C94.592 116.606 94.4928 116.47 94.4421 116.314C93.6484 114.31 93.1768 112.192 93.0447 110.04V104.772C93.0702 104.581 93.1644 104.405 93.3096 104.278C93.4548 104.151 93.6412 104.081 93.8343 104.081C94.0273 104.081 94.2137 104.151 94.3589 104.278C94.5042 104.405 94.5983 104.581 94.6238 104.772V110.04C94.7456 112.023 95.1746 113.974 95.8954 115.825C95.9625 116.023 95.9487 116.24 95.8572 116.429C95.7657 116.617 95.6037 116.761 95.4063 116.831C95.3327 116.845 95.2575 116.85 95.1827 116.845Z" fill="#181828"/>
<path d="M78.303 124.238C78.2504 124.238 78.1984 124.227 78.15 124.207C78.1015 124.186 78.0578 124.156 78.0213 124.118C77.9847 124.08 77.9562 124.036 77.9374 123.986C77.9186 123.937 77.9098 123.885 77.9117 123.832C77.9117 123.832 78.0095 118.816 77.9117 112.5C77.9292 112.407 77.9785 112.323 78.0513 112.263C78.124 112.202 78.2155 112.169 78.31 112.169C78.4044 112.169 78.496 112.202 78.5687 112.263C78.6414 112.323 78.6908 112.407 78.7082 112.5C78.7082 118.816 78.7082 123.804 78.7082 123.846C78.7083 123.899 78.6977 123.951 78.6772 123.999C78.6566 124.048 78.6266 124.092 78.5887 124.128C78.5509 124.165 78.5061 124.193 78.457 124.212C78.4079 124.231 78.3555 124.24 78.303 124.238Z" fill="#181728"/>
<path d="M87.0501 149.936C86.945 149.932 86.8455 149.888 86.7725 149.812C86.6995 149.736 86.6588 149.635 86.6588 149.53C86.6588 149.53 86.7566 144.5 86.7287 138.198C86.7287 138.144 86.7392 138.092 86.7595 138.042C86.7799 137.993 86.8097 137.949 86.8474 137.911C86.885 137.873 86.9297 137.844 86.9788 137.823C87.028 137.803 87.0807 137.792 87.1339 137.792C87.2366 137.796 87.3341 137.838 87.4067 137.911C87.4794 137.983 87.5217 138.081 87.5252 138.184C87.5252 144.5 87.4553 149.488 87.4553 149.544C87.4554 149.597 87.4448 149.649 87.4243 149.697C87.4037 149.746 87.3736 149.789 87.3358 149.826C87.298 149.863 87.2532 149.891 87.2041 149.91C87.155 149.929 87.1026 149.937 87.0501 149.936Z" fill="#181728"/>
<path d="M79.9094 122.743C79.8068 122.739 79.7093 122.697 79.6366 122.624C79.564 122.552 79.5217 122.454 79.5182 122.351C79.5182 120.493 79.5182 118.648 79.5182 116.846C79.5162 116.794 79.525 116.742 79.544 116.694C79.5629 116.645 79.5917 116.601 79.6284 116.565C79.6652 116.528 79.7091 116.499 79.7574 116.48C79.8058 116.461 79.8575 116.452 79.9094 116.454C80.0132 116.454 80.1127 116.496 80.1861 116.569C80.2595 116.642 80.3007 116.742 80.3007 116.846C80.3007 118.648 80.3007 120.493 80.3007 122.351C80.3007 122.455 80.2595 122.555 80.1861 122.628C80.1127 122.701 80.0132 122.743 79.9094 122.743Z" fill="#181728"/>
<path d="M85.1777 144.276C85.0739 144.276 84.9744 144.235 84.901 144.162C84.8277 144.088 84.7864 143.989 84.7864 143.885V138.379C84.7864 138.274 84.8271 138.173 84.9001 138.098C84.9731 138.022 85.0727 137.978 85.1777 137.974C85.2841 137.978 85.3851 138.021 85.4604 138.097C85.5356 138.172 85.5795 138.273 85.5829 138.379C85.5829 140.182 85.5829 142.026 85.5829 143.885C85.583 143.938 85.5724 143.99 85.5519 144.038C85.5314 144.086 85.5013 144.13 85.4634 144.167C85.4256 144.203 85.3808 144.232 85.3317 144.251C85.2826 144.269 85.2302 144.278 85.1777 144.276Z" fill="#181728"/>
<path d="M68.9961 135.598C68.7626 135.598 68.5387 135.506 68.3736 135.34C68.2085 135.175 68.1158 134.951 68.1158 134.718V126.236C68.1 126.112 68.1109 125.986 68.1476 125.867C68.1843 125.747 68.246 125.637 68.3286 125.543C68.4112 125.449 68.5129 125.374 68.6268 125.323C68.7406 125.271 68.8642 125.245 68.9891 125.245C69.1141 125.245 69.2376 125.271 69.3515 125.323C69.4654 125.374 69.567 125.449 69.6496 125.543C69.7322 125.637 69.7939 125.747 69.8306 125.867C69.8673 125.986 69.8782 126.112 69.8625 126.236V134.718C69.8625 134.949 69.7717 135.171 69.6096 135.336C69.4475 135.5 69.2272 135.595 68.9961 135.598Z" fill="white"/>
<path d="M68.9961 141.118C68.7627 141.118 68.5387 141.025 68.3736 140.86C68.2085 140.695 68.1158 140.471 68.1158 140.238V137.988C68.1427 137.775 68.2463 137.58 68.4071 137.438C68.5679 137.297 68.7748 137.218 68.9891 137.218C69.2035 137.218 69.4104 137.297 69.5712 137.438C69.732 137.58 69.8356 137.775 69.8625 137.988V140.252C69.8589 140.48 69.7665 140.699 69.6048 140.86C69.4431 141.022 69.2248 141.115 68.9961 141.118Z" fill="white"/>
<path d="M70.687 133.293C70.5819 133.289 70.4824 133.245 70.4094 133.169C70.3364 133.094 70.2957 132.993 70.2957 132.887C70.2957 131.043 70.2957 129.184 70.2957 127.396C70.299 127.292 70.3408 127.193 70.4131 127.118C70.4855 127.043 70.5831 126.997 70.687 126.991C70.7945 126.991 70.8975 127.033 70.9735 127.109C71.0495 127.185 71.0922 127.288 71.0922 127.396C71.0922 129.198 71.0922 131.043 71.0922 132.901C71.0853 133.005 71.04 133.103 70.9651 133.175C70.8902 133.248 70.7911 133.289 70.687 133.293Z" fill="#181728"/>
<path d="M72.4338 137.457C72.3819 137.459 72.3301 137.45 72.2818 137.431C72.2334 137.412 72.1895 137.383 72.1528 137.347C72.116 137.31 72.0873 137.266 72.0683 137.218C72.0493 137.169 72.0405 137.117 72.0425 137.066C72.0425 135.221 72.0425 133.363 72.0425 131.574C72.0315 131.515 72.0335 131.455 72.0484 131.397C72.0634 131.34 72.0908 131.286 72.1288 131.24C72.1669 131.194 72.2145 131.158 72.2685 131.132C72.3224 131.107 72.3812 131.094 72.4408 131.094C72.5003 131.094 72.5592 131.107 72.6131 131.132C72.667 131.158 72.7147 131.194 72.7527 131.24C72.7907 131.286 72.8182 131.34 72.8331 131.397C72.848 131.455 72.85 131.515 72.839 131.574C72.839 133.377 72.839 135.235 72.839 137.08C72.8372 137.131 72.8253 137.181 72.804 137.228C72.7826 137.275 72.7522 137.317 72.7146 137.352C72.677 137.387 72.6328 137.415 72.5846 137.432C72.5364 137.45 72.4852 137.459 72.4338 137.457Z" fill="#181728"/>
<path d="M95.4483 149.404C95.8419 149.404 96.1609 149.085 96.1609 148.692C96.1609 148.298 95.8419 147.979 95.4483 147.979C95.0547 147.979 94.7356 148.298 94.7356 148.692C94.7356 149.085 95.0547 149.404 95.4483 149.404Z" fill="#4A322F"/>
<path d="M101.569 150.047C101.963 150.047 102.282 149.728 102.282 149.334C102.282 148.941 101.963 148.622 101.569 148.622C101.176 148.622 100.857 148.941 100.857 149.334C100.857 149.728 101.176 150.047 101.569 150.047Z" fill="#4A322F"/>
<path d="M98.1311 150.243C98.4089 150.243 98.6341 150.018 98.6341 149.74C98.6341 149.462 98.4089 149.237 98.1311 149.237C97.8532 149.237 97.628 149.462 97.628 149.74C97.628 150.018 97.8532 150.243 98.1311 150.243Z" fill="#4A322F"/>
<path d="M93.8834 151.221C94.1613 151.221 94.3865 150.996 94.3865 150.718C94.3865 150.44 94.1613 150.215 93.8834 150.215C93.6056 150.215 93.3804 150.44 93.3804 150.718C93.3804 150.996 93.6056 151.221 93.8834 151.221Z" fill="#4A322F"/>
<path d="M98.4529 148.063C98.7307 148.063 98.9559 147.838 98.9559 147.56C98.9559 147.282 98.7307 147.057 98.4529 147.057C98.1751 147.057 97.9498 147.282 97.9498 147.56C97.9498 147.838 98.1751 148.063 98.4529 148.063Z" fill="#4A322F"/>
<path d="M96.4965 146.763C96.6895 146.763 96.8459 146.607 96.8459 146.414C96.8459 146.221 96.6895 146.064 96.4965 146.064C96.3036 146.064 96.1472 146.221 96.1472 146.414C96.1472 146.607 96.3036 146.763 96.4965 146.763Z" fill="#4A322F"/>
<path d="M79.4486 148.301C79.6415 148.301 79.7979 148.144 79.7979 147.951C79.7979 147.758 79.6415 147.602 79.4486 147.602C79.2556 147.602 79.0992 147.758 79.0992 147.951C79.0992 148.144 79.2556 148.301 79.4486 148.301Z" fill="#4A322F"/>
<path d="M80.7483 142.417C80.9412 142.417 81.0976 142.261 81.0976 142.068C81.0976 141.875 80.9412 141.719 80.7483 141.719C80.5554 141.719 80.399 141.875 80.399 142.068C80.399 142.261 80.5554 142.417 80.7483 142.417Z" fill="#4A322F"/>
<path d="M103.875 145.757C104.068 145.757 104.224 145.6 104.224 145.407C104.224 145.215 104.068 145.058 103.875 145.058C103.682 145.058 103.526 145.215 103.526 145.407C103.526 145.6 103.682 145.757 103.875 145.757Z" fill="#4A322F"/>
<path d="M107.969 146.525C108.162 146.525 108.318 146.369 108.318 146.176C108.318 145.983 108.162 145.827 107.969 145.827C107.776 145.827 107.619 145.983 107.619 146.176C107.619 146.369 107.776 146.525 107.969 146.525Z" fill="#4A322F"/>
<path d="M112.273 137.247C112.667 137.247 112.986 136.928 112.986 136.535C112.986 136.141 112.667 135.822 112.273 135.822C111.879 135.822 111.56 136.141 111.56 136.535C111.56 136.928 111.879 137.247 112.273 137.247Z" fill="#4A322F"/>
<path d="M115.347 131.923C115.741 131.923 116.06 131.604 116.06 131.211C116.06 130.817 115.741 130.498 115.347 130.498C114.954 130.498 114.635 130.817 114.635 131.211C114.635 131.604 114.954 131.923 115.347 131.923Z" fill="#4A322F"/>
<path d="M114.327 135.011C114.605 135.011 114.83 134.786 114.83 134.508C114.83 134.23 114.605 134.005 114.327 134.005C114.049 134.005 113.824 134.23 113.824 134.508C113.824 134.786 114.049 135.011 114.327 135.011Z" fill="#4A322F"/>
<path d="M113.489 139.287C113.766 139.287 113.992 139.062 113.992 138.784C113.992 138.506 113.766 138.281 113.489 138.281C113.211 138.281 112.986 138.506 112.986 138.784C112.986 139.062 113.211 139.287 113.489 139.287Z" fill="#4A322F"/>
<path d="M112.469 133.837C112.746 133.837 112.972 133.612 112.972 133.334C112.972 133.056 112.746 132.831 112.469 132.831C112.191 132.831 111.965 133.056 111.965 133.334C111.965 133.612 112.191 133.837 112.469 133.837Z" fill="#4A322F"/>
<path d="M110.624 134.997C110.817 134.997 110.973 134.841 110.973 134.648C110.973 134.455 110.817 134.299 110.624 134.299C110.431 134.299 110.275 134.455 110.275 134.648C110.275 134.841 110.431 134.997 110.624 134.997Z" fill="#4A322F"/>
<path d="M105.077 151.207C105.27 151.207 105.426 151.05 105.426 150.857C105.426 150.665 105.27 150.508 105.077 150.508C104.884 150.508 104.727 150.665 104.727 150.857C104.727 151.05 104.884 151.207 105.077 151.207Z" fill="#4A322F"/>
<path d="M100.228 147.602C100.421 147.602 100.577 147.445 100.577 147.252C100.577 147.059 100.421 146.903 100.228 146.903C100.035 146.903 99.8783 147.059 99.8783 147.252C99.8783 147.445 100.035 147.602 100.228 147.602Z" fill="#4A322F"/>
<path d="M112.692 127.842C112.885 127.842 113.041 127.686 113.041 127.493C113.041 127.3 112.885 127.144 112.692 127.144C112.499 127.144 112.343 127.3 112.343 127.493C112.343 127.686 112.499 127.842 112.692 127.842Z" fill="#4A322F"/>
<path d="M115.068 124.419C115.261 124.419 115.417 124.263 115.417 124.07C115.417 123.877 115.261 123.72 115.068 123.72C114.875 123.72 114.718 123.877 114.718 124.07C114.718 124.263 114.875 124.419 115.068 124.419Z" fill="#4A322F"/>
<path d="M71.1201 150.788C71.5137 150.788 71.8328 150.469 71.8328 150.076C71.8328 149.682 71.5137 149.363 71.1201 149.363C70.7265 149.363 70.4074 149.682 70.4074 150.076C70.4074 150.469 70.7265 150.788 71.1201 150.788Z" fill="#4A322F"/>
<path d="M74.1942 145.463C74.5878 145.463 74.9068 145.144 74.9068 144.751C74.9068 144.357 74.5878 144.038 74.1942 144.038C73.8006 144.038 73.4815 144.357 73.4815 144.751C73.4815 145.144 73.8006 145.463 74.1942 145.463Z" fill="#4A322F"/>
<path d="M73.1743 148.552C73.4522 148.552 73.6774 148.327 73.6774 148.049C73.6774 147.771 73.4522 147.546 73.1743 147.546C72.8965 147.546 72.6713 147.771 72.6713 148.049C72.6713 148.327 72.8965 148.552 73.1743 148.552Z" fill="#4A322F"/>
<path d="M72.3358 152.828C72.6136 152.828 72.8388 152.603 72.8388 152.325C72.8388 152.047 72.6136 151.822 72.3358 151.822C72.058 151.822 71.8327 152.047 71.8327 152.325C71.8327 152.603 72.058 152.828 72.3358 152.828Z" fill="#4A322F"/>
<path d="M71.3158 147.378C71.5936 147.378 71.8189 147.153 71.8189 146.875C71.8189 146.598 71.5936 146.372 71.3158 146.372C71.038 146.372 70.8127 146.598 70.8127 146.875C70.8127 147.153 71.038 147.378 71.3158 147.378Z" fill="#4A322F"/>
<path d="M69.4711 148.538C69.6641 148.538 69.8205 148.381 69.8205 148.189C69.8205 147.996 69.6641 147.839 69.4711 147.839C69.2782 147.839 69.1218 147.996 69.1218 148.189C69.1218 148.381 69.2782 148.538 69.4711 148.538Z" fill="#4A322F"/>
<path d="M71.5533 141.384C71.7462 141.384 71.9026 141.227 71.9026 141.034C71.9026 140.842 71.7462 140.685 71.5533 140.685C71.3603 140.685 71.2039 140.842 71.2039 141.034C71.2039 141.227 71.3603 141.384 71.5533 141.384Z" fill="#4A322F"/>
<path d="M73.9147 137.96C74.1077 137.96 74.2641 137.803 74.2641 137.61C74.2641 137.417 74.1077 137.261 73.9147 137.261C73.7218 137.261 73.5654 137.417 73.5654 137.61C73.5654 137.803 73.7218 137.96 73.9147 137.96Z" fill="#4A322F"/>
<path d="M90.739 113.338H84.9398C84.7063 113.338 84.4824 113.245 84.3173 113.08C84.1522 112.915 84.0595 112.691 84.0595 112.458C84.0595 112.224 84.1522 112 84.3173 111.835C84.4824 111.67 84.7063 111.577 84.9398 111.577H90.739C90.9724 111.577 91.1964 111.67 91.3615 111.835C91.5265 112 91.6193 112.224 91.6193 112.458C91.6193 112.691 91.5265 112.915 91.3615 113.08C91.1964 113.245 90.9724 113.338 90.739 113.338Z" fill="white"/>
<path d="M81.852 113.338H80.3708C80.1373 113.338 79.9134 113.245 79.7483 113.08C79.5832 112.915 79.4904 112.691 79.4904 112.458C79.4904 112.224 79.5832 112 79.7483 111.835C79.9134 111.67 80.1373 111.577 80.3708 111.577H81.852C82.0855 111.577 82.3094 111.67 82.4745 111.835C82.6396 112 82.7323 112.224 82.7323 112.458C82.7323 112.691 82.6396 112.915 82.4745 113.08C82.3094 113.245 82.0855 113.338 81.852 113.338Z" fill="white"/>
<path d="M94.6519 162.777H93.9252C86.586 162.766 79.3358 161.169 72.6711 158.096C71.0202 158.048 69.4528 157.359 68.3021 156.174C67.1514 154.99 66.508 153.403 66.5086 151.752V125.117C66.5123 123.914 66.992 122.761 67.8429 121.91C68.6938 121.059 69.8468 120.58 71.0501 120.576C71.9125 120.572 72.7385 120.228 73.3483 119.618C73.9581 119.008 74.3023 118.182 74.306 117.32V115.294C74.306 114.073 74.7899 112.902 75.6517 112.038C76.5135 111.174 77.6828 110.686 78.9034 110.683H109.646C110.866 110.686 112.036 111.174 112.897 112.038C113.759 112.902 114.243 114.073 114.243 115.294V117.32C114.243 118.184 114.586 119.012 115.197 119.622C115.807 120.233 116.636 120.576 117.499 120.576C118.702 120.58 119.855 121.059 120.706 121.91C121.557 122.761 122.037 123.914 122.041 125.117V151.752C122.038 153.402 121.393 154.987 120.243 156.171C119.093 157.355 117.528 158.045 115.878 158.096C109.221 161.164 101.982 162.761 94.6519 162.777ZM78.9034 112.206C78.0941 112.22 77.3229 112.552 76.7557 113.13C76.1886 113.707 75.871 114.484 75.8711 115.294V117.32C75.8674 118.586 75.3627 119.8 74.4673 120.695C73.5718 121.591 72.3584 122.095 71.092 122.099C70.2915 122.099 69.5238 122.417 68.9578 122.983C68.3917 123.549 68.0737 124.317 68.0737 125.117V151.752C68.0737 153.028 68.5797 154.252 69.4808 155.156C70.3819 156.059 71.6045 156.569 72.8807 156.572C72.9868 156.551 73.096 156.551 73.2021 156.572C79.7063 159.601 86.7926 161.174 93.9672 161.184H94.6938C101.868 161.174 108.955 159.601 115.459 156.572C115.565 156.551 115.674 156.551 115.78 156.572C117.056 156.569 118.279 156.059 119.18 155.156C120.081 154.252 120.587 153.028 120.587 151.752V125.117C120.587 124.317 120.269 123.549 119.703 122.983C119.137 122.417 118.369 122.099 117.569 122.099C116.941 122.099 116.32 121.976 115.74 121.735C115.16 121.495 114.633 121.143 114.19 120.699C113.746 120.256 113.394 119.729 113.154 119.149C112.913 118.569 112.79 117.948 112.79 117.32V115.294C112.79 114.477 112.466 113.694 111.89 113.115C111.314 112.536 110.532 112.209 109.716 112.206H78.9034Z" fill="black"/>
<path d="M110.163 144.234C110.111 144.234 110.059 144.224 110.01 144.203C109.962 144.183 109.918 144.153 109.882 144.115C109.845 144.077 109.816 144.032 109.798 143.983C109.779 143.934 109.77 143.882 109.772 143.829C109.772 143.829 109.87 138.798 109.772 132.496C109.761 132.438 109.763 132.378 109.778 132.32C109.793 132.262 109.82 132.209 109.858 132.163C109.896 132.117 109.944 132.08 109.998 132.055C110.052 132.029 110.111 132.016 110.17 132.016C110.23 132.016 110.289 132.029 110.343 132.055C110.396 132.08 110.444 132.117 110.482 132.163C110.52 132.209 110.548 132.262 110.563 132.32C110.577 132.378 110.58 132.438 110.569 132.496C110.569 138.812 110.569 143.801 110.569 143.843C110.569 143.896 110.558 143.948 110.537 143.996C110.517 144.044 110.487 144.088 110.449 144.125C110.411 144.161 110.366 144.19 110.317 144.209C110.268 144.227 110.216 144.236 110.163 144.234Z" fill="#181728"/>
<path d="M111.98 136.367C111.876 136.367 111.776 136.326 111.703 136.253C111.629 136.179 111.588 136.08 111.588 135.976V130.47C111.606 130.378 111.655 130.294 111.728 130.233C111.801 130.173 111.892 130.14 111.987 130.14C112.081 130.14 112.172 130.173 112.245 130.233C112.318 130.294 112.367 130.378 112.385 130.47C112.385 132.273 112.385 134.118 112.385 135.976C112.385 136.029 112.374 136.081 112.354 136.129C112.333 136.177 112.303 136.221 112.265 136.258C112.227 136.294 112.183 136.323 112.134 136.342C112.084 136.36 112.032 136.369 111.98 136.367Z" fill="#181728"/>
<path d="M73.4677 157.635C73.4151 157.635 73.3631 157.625 73.3147 157.604C73.2663 157.584 73.2225 157.553 73.186 157.516C73.1494 157.478 73.1209 157.433 73.1021 157.384C73.0833 157.335 73.0745 157.282 73.0764 157.23C73.0764 157.23 73.1882 152.199 73.1603 145.897C73.1603 145.793 73.2015 145.694 73.2749 145.62C73.3482 145.547 73.4478 145.506 73.5515 145.506C73.6553 145.506 73.7548 145.547 73.8282 145.62C73.9016 145.694 73.9428 145.793 73.9428 145.897C73.9428 152.213 73.8729 157.202 73.8729 157.244C73.873 157.296 73.8624 157.349 73.8419 157.397C73.8213 157.445 73.7913 157.489 73.7534 157.526C73.7156 157.562 73.6708 157.591 73.6217 157.609C73.5726 157.628 73.5202 157.637 73.4677 157.635Z" fill="#181728"/>
<path d="M81.1534 44.8386C71.3717 46.8927 66.5368 57.1495 66.5368 57.1495C52.9403 62.739 56.0145 75.3154 56.0145 75.3154H59.6058C59.6058 75.3154 97.335 43.525 132.423 75.3154C133.117 71.8294 132.89 68.2229 131.765 64.8513C130.64 61.4796 128.657 58.4591 126.009 56.0875C116.787 47.3678 117.304 42.491 111.91 42.2395" fill="#3144F1"/>
<path d="M132.437 74.7564C97.3209 42.966 59.6336 74.7564 59.6336 74.7564H56.0284C55.6902 73.0301 55.6336 71.2606 55.8607 69.5162C55.8923 69.8736 55.9483 70.2285 56.0284 70.5782H59.6336C59.6336 70.5782 97.3629 38.7878 132.437 70.5782C132.437 70.5782 132.591 69.9215 132.731 68.7896C132.967 70.7809 132.868 72.7978 132.437 74.7564Z" fill="#2564BF"/>
<path d="M69.9743 57.0517L67.9481 55.864C68.1437 55.5426 72.7271 47.843 79.8957 45.7609L80.5524 48.0107C74.2642 49.8273 70.0162 56.9399 69.9743 57.0517Z" fill="#2564BF"/>
<path d="M123.983 58.1558C120.772 54.9487 116.801 52.6074 112.441 51.3506L113.028 49.0868C117.838 50.4415 122.211 53.028 125.716 56.5908L123.983 58.1558Z" fill="#2564BF"/>
<path d="M130.984 63.7452C130.831 63.746 130.682 63.703 130.553 63.6212C130.424 63.5395 130.321 63.4225 130.257 63.2841C129.101 60.8041 127.478 58.5696 125.478 56.7024C121.691 53.2511 117.143 50.7423 112.203 49.3801C112.1 49.3587 112.003 49.3169 111.917 49.2572C111.831 49.1974 111.757 49.1209 111.701 49.0323C111.645 48.9437 111.608 48.8447 111.59 48.7412C111.573 48.6377 111.577 48.5318 111.602 48.4299C111.655 48.2289 111.783 48.0559 111.96 47.9467C112.137 47.8374 112.349 47.8003 112.552 47.843C117.767 49.2428 122.563 51.8901 126.526 55.5566C128.717 57.5492 130.497 59.9512 131.766 62.6273C131.811 62.7216 131.836 62.8238 131.84 62.928C131.844 63.0321 131.828 63.136 131.791 63.2336C131.755 63.3312 131.699 63.4206 131.628 63.4964C131.556 63.5723 131.47 63.6331 131.375 63.6753C131.251 63.7277 131.118 63.7516 130.984 63.7452Z" fill="black"/>
<path d="M58.991 67.5597L56.6854 67.1266C57.0832 65.1324 58.1416 63.3306 59.6897 62.0121L61.0871 63.8986C60.0089 64.8586 59.273 66.1439 58.991 67.5597Z" fill="#2564BF"/>
<path d="M59.1024 63.2279C58.9238 63.2229 58.7519 63.1591 58.6133 63.0462C58.4507 62.9125 58.3477 62.7198 58.3268 62.5104C58.3058 62.3009 58.3687 62.0916 58.5015 61.9283C60.0494 60.0742 61.9491 58.5449 64.0911 57.4288C65.2738 56.8046 66.2751 55.8852 66.9976 54.7598C69.1077 51.42 73.733 45.593 80.9714 44.0698C81.0733 44.0474 81.1787 44.0456 81.2814 44.0645C81.384 44.0834 81.4818 44.1227 81.5691 44.18C81.6563 44.2373 81.7312 44.3115 81.7894 44.3981C81.8475 44.4848 81.8877 44.5822 81.9077 44.6847C81.949 44.8902 81.9077 45.1038 81.7926 45.2791C81.6775 45.4544 81.4979 45.5772 81.2928 45.6209C74.6133 47.0183 70.2815 52.4821 68.3251 55.5423C67.4579 56.9011 66.2546 58.013 64.8317 58.7703C62.867 59.7804 61.1273 61.1779 59.7173 62.8786C59.6478 62.9795 59.5564 63.0633 59.45 63.1238C59.3435 63.1843 59.2246 63.2199 59.1024 63.2279Z" fill="black"/>
<path d="M55.8887 70.7041H55.7769C55.57 70.6729 55.3837 70.5617 55.2582 70.3944C55.1327 70.227 55.0781 70.017 55.1061 69.8098C55.292 68.4777 55.6393 67.1732 56.1402 65.925C56.1786 65.8295 56.2355 65.7425 56.3076 65.669C56.3797 65.5955 56.4656 65.537 56.5603 65.4967C56.6551 65.4565 56.7569 65.4354 56.8598 65.4345C56.9628 65.4337 57.0649 65.4532 57.1603 65.4919C57.3543 65.5726 57.5095 65.7256 57.5929 65.9185C57.6763 66.1114 57.6815 66.3292 57.6074 66.5259C57.1522 67.6521 56.8377 68.8301 56.6712 70.0333C56.6414 70.2197 56.5463 70.3895 56.403 70.5123C56.2597 70.6352 56.0774 70.7031 55.8887 70.7041Z" fill="black"/>
<path d="M69.2337 48.0524C69.0385 48.0542 68.8461 48.0061 68.6747 47.9127C68.5388 47.8394 68.4186 47.7401 68.3211 47.6203C68.2236 47.5006 68.1507 47.3627 68.1066 47.2148C68.0624 47.0668 68.0479 46.9115 68.0639 46.7579C68.0799 46.6043 68.126 46.4554 68.1996 46.3197C70.8962 41.653 74.6661 37.6962 79.197 34.7773C79.464 34.6184 79.783 34.5719 80.0842 34.6479C80.3854 34.7238 80.6443 34.9161 80.804 35.1825C80.8845 35.3142 80.9379 35.4606 80.9611 35.6132C80.9843 35.7658 80.9768 35.9215 80.9391 36.0712C80.9014 36.2209 80.8341 36.3615 80.7413 36.4848C80.6486 36.6082 80.5321 36.7118 80.3987 36.7895C76.2391 39.4977 72.7737 43.1449 70.2817 47.4376C70.1786 47.6249 70.0267 47.7809 69.8423 47.8891C69.6578 47.9974 69.4475 48.0538 69.2337 48.0524Z" fill="#C6DBFF"/>
<path d="M84.7304 34.5812C84.4876 34.5827 84.2505 34.508 84.0525 34.3676C83.8544 34.2272 83.7054 34.0282 83.6265 33.7986C83.5227 33.5076 83.5379 33.1874 83.6687 32.9075C83.7995 32.6276 84.0353 32.4106 84.3251 32.3034C86.1113 31.6778 87.9489 31.2102 89.8169 30.9061C89.9736 30.8696 90.1362 30.8665 90.2942 30.897C90.4522 30.9276 90.602 30.9911 90.7338 31.0833C90.8656 31.1756 90.9765 31.2946 91.0593 31.4326C91.1421 31.5706 91.1949 31.7245 91.2142 31.8842C91.2485 32.0408 91.2499 32.2028 91.2185 32.3599C91.187 32.5171 91.1233 32.666 91.0314 32.7973C90.9395 32.9286 90.8213 33.0394 90.6845 33.1228C90.5476 33.2061 90.3949 33.2602 90.2361 33.2816C88.5208 33.5579 86.8328 33.9834 85.1915 34.5532C85.0404 34.5881 84.8846 34.5975 84.7304 34.5812Z" fill="white"/>
<path d="M125.408 56.018C125.219 56.0161 125.037 55.9457 124.895 55.8198C124.754 55.6939 124.663 55.5211 124.639 55.3333C123.914 49.9943 121.612 44.9929 118.03 40.9682C117.956 40.8966 117.897 40.8108 117.857 40.716C117.817 40.6211 117.796 40.5192 117.796 40.4163C117.796 40.3133 117.817 40.2114 117.857 40.1165C117.897 40.0217 117.956 39.9359 118.03 39.8643C118.107 39.7943 118.198 39.7405 118.296 39.706C118.395 39.6716 118.499 39.6572 118.604 39.6637C118.708 39.6702 118.81 39.6975 118.903 39.7439C118.996 39.7904 119.08 39.8551 119.148 39.9342C122.956 44.1814 125.404 49.472 126.177 55.1237C126.204 55.3331 126.148 55.5449 126.019 55.7126C125.891 55.8804 125.701 55.9902 125.492 56.018H125.408Z" fill="black"/>
<path d="M116.004 38.6201C115.813 38.6255 115.627 38.5552 115.487 38.4245C114.244 37.3433 112.917 36.3621 111.519 35.49C111.342 35.3778 111.216 35.2005 111.169 34.9966C111.122 34.7926 111.157 34.5783 111.267 34.4C111.321 34.3111 111.393 34.2338 111.477 34.1729C111.562 34.1119 111.658 34.0685 111.759 34.045C111.861 34.0216 111.966 34.0187 112.068 34.0364C112.171 34.0542 112.269 34.0923 112.357 34.1485C113.836 35.0628 115.238 36.0956 116.549 37.2367C116.623 37.3095 116.683 37.3965 116.723 37.4925C116.763 37.5885 116.784 37.6915 116.784 37.7956C116.784 37.8997 116.763 38.0028 116.723 38.0988C116.683 38.1948 116.623 38.2817 116.549 38.3546C116.482 38.4341 116.398 38.4988 116.304 38.5445C116.211 38.5902 116.108 38.6159 116.004 38.6201Z" fill="black"/>
<path d="M65.1114 57.8344C65.0086 57.8273 64.9081 57.8 64.8159 57.754C64.7236 57.708 64.6414 57.6442 64.5738 57.5662C64.5063 57.4883 64.4549 57.3978 64.4224 57.3C64.39 57.2021 64.3772 57.0988 64.3848 56.996C65.321 41.5689 78.9595 29.3558 95.3507 29.3558C98.8796 29.3477 102.386 29.914 105.733 31.0327C106.6 31.3261 107.438 31.6475 108.263 32.0108C108.357 32.0518 108.443 32.1112 108.515 32.1854C108.586 32.2597 108.643 32.3474 108.68 32.4435C108.718 32.5396 108.736 32.6423 108.734 32.7455C108.732 32.8487 108.709 32.9504 108.668 33.0449C108.585 33.2363 108.43 33.3874 108.236 33.4658C108.043 33.5442 107.827 33.5436 107.634 33.4641C106.845 33.113 106.038 32.8051 105.216 32.5418C102.032 31.4735 98.6953 30.9307 95.3368 30.9349C79.7699 30.9349 66.8302 42.4213 65.88 57.0938C65.8728 57.2928 65.7886 57.4811 65.6452 57.6193C65.5019 57.7574 65.3105 57.8346 65.1114 57.8344Z" fill="black"/>
<path d="M86.6588 42.2814C89.1439 42.2814 91.1584 41.2116 91.1584 39.8919C91.1584 38.5722 89.1439 37.5024 86.6588 37.5024C84.1738 37.5024 82.1593 38.5722 82.1593 39.8919C82.1593 41.2116 84.1738 42.2814 86.6588 42.2814Z" fill="#C6DBFF"/>
<path d="M91.7594 37.5021C92.4154 37.5021 92.9472 36.9703 92.9472 36.3144C92.9472 35.6584 92.4154 35.1266 91.7594 35.1266C91.1034 35.1266 90.5716 35.6584 90.5716 36.3144C90.5716 36.9703 91.1034 37.5021 91.7594 37.5021Z" fill="#C6DBFF"/>
<path d="M78.191 53.3765C78.5846 53.3765 78.9037 53.0574 78.9037 52.6639C78.9037 52.2703 78.5846 51.9512 78.191 51.9512C77.7974 51.9512 77.4783 52.2703 77.4783 52.6639C77.4783 53.0574 77.7974 53.3765 78.191 53.3765Z" fill="#2564BF"/>
<path d="M72.2522 55.0248C72.6457 55.0248 72.9648 54.7057 72.9648 54.3121C72.9648 53.9185 72.6457 53.5994 72.2522 53.5994C71.8586 53.5994 71.5395 53.9185 71.5395 54.3121C71.5395 54.7057 71.8586 55.0248 72.2522 55.0248Z" fill="#2564BF"/>
<path d="M75.2983 53.1669C75.5761 53.1669 75.8014 52.9417 75.8014 52.6639C75.8014 52.386 75.5761 52.1608 75.2983 52.1608C75.0205 52.1608 74.7953 52.386 74.7953 52.6639C74.7953 52.9417 75.0205 53.1669 75.2983 53.1669Z" fill="#2564BF"/>
<path d="M78.9034 50.7074C79.1812 50.7074 79.4065 50.4821 79.4065 50.2043C79.4065 49.9265 79.1812 49.7012 78.9034 49.7012C78.6256 49.7012 78.4004 49.9265 78.4004 50.2043C78.4004 50.4821 78.6256 50.7074 78.9034 50.7074Z" fill="#2564BF"/>
<path d="M75.8012 55.3193C76.079 55.3193 76.3042 55.094 76.3042 54.8162C76.3042 54.5384 76.079 54.3132 75.8012 54.3132C75.5234 54.3132 75.2981 54.5384 75.2981 54.8162C75.2981 55.094 75.5234 55.3193 75.8012 55.3193Z" fill="#2564BF"/>
<path d="M78.0369 55.5144C78.2298 55.5144 78.3863 55.358 78.3863 55.1651C78.3863 54.9721 78.2298 54.8157 78.0369 54.8157C77.844 54.8157 77.6876 54.9721 77.6876 55.1651C77.6876 55.358 77.844 55.5144 78.0369 55.5144Z" fill="#2564BF"/>
<path d="M93.3525 47.8293C93.5455 47.8293 93.7019 47.6729 93.7019 47.48C93.7019 47.287 93.5455 47.1306 93.3525 47.1306C93.1596 47.1306 93.0032 47.287 93.0032 47.48C93.0032 47.6729 93.1596 47.8293 93.3525 47.8293Z" fill="#2564BF"/>
<path d="M107.606 39.8784C107.799 39.8784 107.955 39.722 107.955 39.529C107.955 39.3361 107.799 39.1797 107.606 39.1797C107.413 39.1797 107.256 39.3361 107.256 39.529C107.256 39.722 107.413 39.8784 107.606 39.8784Z" fill="#2564BF"/>
<path d="M102.142 42.6307C102.335 42.6307 102.491 42.4743 102.491 42.2814C102.491 42.0884 102.335 41.932 102.142 41.932C101.949 41.932 101.793 42.0884 101.793 42.2814C101.793 42.4743 101.949 42.6307 102.142 42.6307Z" fill="#2564BF"/>
<path d="M94.638 42.2675C94.8309 42.2675 94.9873 42.1111 94.9873 41.9182C94.9873 41.7252 94.8309 41.5688 94.638 41.5688C94.445 41.5688 94.2886 41.7252 94.2886 41.9182C94.2886 42.1111 94.445 42.2675 94.638 42.2675Z" fill="#2564BF"/>
<path d="M111.364 57.5411C111.557 57.5411 111.714 57.3847 111.714 57.1917C111.714 56.9988 111.557 56.8424 111.364 56.8424C111.171 56.8424 111.015 56.9988 111.015 57.1917C111.015 57.3847 111.171 57.5411 111.364 57.5411Z" fill="#2564BF"/>
<path d="M66.886 62.9766C67.0789 62.9766 67.2353 62.8202 67.2353 62.6273C67.2353 62.4343 67.0789 62.2779 66.886 62.2779C66.693 62.2779 66.5366 62.4343 66.5366 62.6273C66.5366 62.8202 66.693 62.9766 66.886 62.9766Z" fill="#2564BF"/>
<path d="M102.491 56.8143C102.684 56.8143 102.841 56.6579 102.841 56.4649C102.841 56.272 102.684 56.1156 102.491 56.1156C102.298 56.1156 102.142 56.272 102.142 56.4649C102.142 56.6579 102.298 56.8143 102.491 56.8143Z" fill="#2564BF"/>
<path d="M94.2887 53.7959C94.4816 53.7959 94.638 53.6395 94.638 53.4466C94.638 53.2537 94.4816 53.0973 94.2887 53.0973C94.0957 53.0973 93.9393 53.2537 93.9393 53.4466C93.9393 53.6395 94.0957 53.7959 94.2887 53.7959Z" fill="#2564BF"/>
<path d="M71.5532 59.1616C71.7461 59.1616 71.9025 59.0052 71.9025 58.8123C71.9025 58.6193 71.7461 58.4629 71.5532 58.4629C71.3603 58.4629 71.2039 58.6193 71.2039 58.8123C71.2039 59.0052 71.3603 59.1616 71.5532 59.1616Z" fill="#2564BF"/>
<path d="M67.4593 59.9446C67.6522 59.9446 67.8086 59.7882 67.8086 59.5953C67.8086 59.4023 67.6522 59.2459 67.4593 59.2459C67.2663 59.2459 67.1099 59.4023 67.1099 59.5953C67.1099 59.7882 67.2663 59.9446 67.4593 59.9446Z" fill="#2564BF"/>
<path d="M95.3505 30.1522L95.8256 27.3295L96.9156 30.1522L97.6143 24.8002L98.4527 30.1522" fill="black"/>
<path d="M96.1332 29.4395L97.6144 24.8002L97.6563 29.4395" fill="black"/>
<path d="M63.2389 59.1476L61.576 56.8279L64.3428 58.0437L61.059 53.7677L65.4328 56.9537" fill="black"/>
<path d="M63.2948 58.0995L61.059 53.7677L64.3707 57.0236" fill="black"/>
<path d="M126.722 57.0095L128.385 54.6758L125.618 55.8916L128.902 51.6295L124.528 54.8156" fill="black"/>
<path d="M126.666 55.9475L128.902 51.6295L125.59 54.8715" fill="black"/>
<path d="M132.423 76.1399C132.229 76.1393 132.041 76.07 131.892 75.9442C97.6704 44.9643 60.4861 75.6368 60.1228 75.9442C59.9762 76.0619 59.7938 76.126 59.6058 76.1259H56.0145C55.8397 76.1244 55.6704 76.0644 55.5336 75.9555C55.3969 75.8466 55.3005 75.6951 55.2599 75.525C55.021 74.4706 54.9038 73.3922 54.9106 72.311C54.9087 72.2077 54.9276 72.1051 54.9663 72.0093C55.0049 71.9135 55.0625 71.8265 55.1356 71.7535C55.2086 71.6804 55.2956 71.6229 55.3914 71.5842C55.4872 71.5455 55.5898 71.5266 55.6931 71.5285C55.902 71.5285 56.1025 71.6105 56.2515 71.7568C56.4004 71.9032 56.486 72.1022 56.4896 72.311C56.4893 73.045 56.5406 73.7781 56.6433 74.5049H59.2984C62.5123 71.9477 98.425 44.6988 131.864 73.7643C132.169 71.2033 131.975 68.6076 131.291 66.1206C131.235 65.9187 131.261 65.7027 131.363 65.5196C131.465 65.3365 131.635 65.201 131.836 65.1425C131.937 65.1149 132.043 65.1075 132.146 65.1207C132.25 65.1339 132.35 65.1674 132.441 65.2193C132.532 65.2712 132.612 65.3405 132.676 65.4232C132.74 65.506 132.787 65.6005 132.815 65.7014C133.73 68.8842 133.85 72.2431 133.164 75.4831C133.127 75.6146 133.058 75.7348 132.963 75.8325C132.868 75.9302 132.749 76.0023 132.619 76.042L132.423 76.1399Z" fill="black"/>
<path opacity="0.4" d="M89.9226 80.3308L88.8696 79.9457C87.1547 79.344 85.5842 78.2188 83.9295 78.315C82.3397 78.5058 80.8189 79.0754 79.4948 79.9758L78.3937 80.3488L77.6536 77.7976L78.7487 77.4726C78.9954 77.4004 84.8802 75.6976 89.7782 77.5027L90.7831 77.8698L89.9226 80.3308Z" fill="#F57A59"/>
<path d="M90.1092 79.0611L88.8696 78.6098C84.784 77.1056 79.543 78.6098 79.4949 78.6098L78.2313 78.9829L77.4851 76.4557L78.7487 76.0826C78.9955 76.0104 84.8803 74.3076 89.7782 76.0826L91.0178 76.5399L90.1092 79.0611Z" fill="#582C22"/>
<path d="M90.452 78.0745L90.1692 78.8507L88.9297 78.3994C84.85 76.9072 79.6031 78.3994 79.5549 78.4295L78.2853 78.8026L78.0566 78.0143L79.1879 77.6894C79.236 77.6894 84.8801 76.1671 89.2787 77.6894L90.452 78.0745Z" fill="#0E0908"/>
<path d="M78.2853 76.9428C78.2323 76.9412 78.1811 76.9237 78.1382 76.8925C78.0952 76.8614 78.0627 76.8182 78.0446 76.7683C78.0343 76.7367 78.0303 76.7034 78.0329 76.6702C78.0355 76.6371 78.0446 76.6048 78.0597 76.5752C78.0748 76.5455 78.0956 76.5192 78.1208 76.4976C78.1461 76.476 78.1754 76.4596 78.2071 76.4494C79.5191 76.0317 80.8731 75.7593 82.2446 75.6371C82.278 75.6346 82.3115 75.639 82.3432 75.6499C82.3748 75.6608 82.4039 75.6781 82.4287 75.7006C82.4534 75.7231 82.4734 75.7504 82.4872 75.7809C82.5011 75.8113 82.5086 75.8443 82.5094 75.8778C82.5118 75.9107 82.5076 75.9437 82.4971 75.975C82.4866 76.0062 82.4698 76.0351 82.448 76.0597C82.4261 76.0844 82.3995 76.1045 82.3697 76.1187C82.34 76.1329 82.3076 76.141 82.2747 76.1425C80.947 76.2644 79.636 76.5266 78.3635 76.9248C78.3391 76.9364 78.3124 76.9426 78.2853 76.9428Z" fill="white"/>
<path d="M90.1092 79.2899H90.031L88.8155 78.8206C84.778 77.3403 79.6333 78.8206 79.5852 78.8567L78.3216 79.2297C78.2626 79.2451 78.1999 79.2375 78.1463 79.2084C78.0927 79.1794 78.0521 79.1311 78.0327 79.0733L77.2866 76.5461C77.2749 76.5185 77.2688 76.4888 77.2688 76.4588C77.2688 76.4288 77.2749 76.3992 77.2866 76.3716C77.3158 76.3166 77.3655 76.2755 77.425 76.2572L78.6886 75.8842C81.6393 75.0785 84.7254 74.8961 87.7505 75.3486C87.7801 75.3537 87.8085 75.3646 87.8339 75.3807C87.8594 75.3968 87.8814 75.4177 87.8987 75.4423C87.916 75.4669 87.9283 75.4947 87.9349 75.524C87.9415 75.5534 87.9422 75.5838 87.937 75.6134C87.9253 75.6738 87.8904 75.7271 87.8398 75.762C87.7891 75.7969 87.7268 75.8105 87.6662 75.7999C84.7115 75.3575 81.697 75.5358 78.815 76.3234L77.774 76.6363L78.3757 78.7243L79.4287 78.3994C79.4769 78.3994 84.784 76.8469 88.9479 78.3994L89.9708 78.7724L90.723 76.7326L89.7001 76.3535C89.4293 76.2572 89.1585 76.167 88.8817 76.0888C88.8235 76.072 88.7743 76.0328 88.745 75.9797C88.7156 75.9267 88.7085 75.8642 88.7253 75.806C88.7421 75.7477 88.7813 75.6985 88.8343 75.6692C88.8873 75.6399 88.9498 75.6328 89.0081 75.6495C89.2909 75.7277 89.6098 75.824 89.8565 75.9263L91.096 76.3776C91.1514 76.401 91.1964 76.4438 91.2224 76.4979C91.2357 76.5251 91.2426 76.5549 91.2426 76.5852C91.2426 76.6154 91.2357 76.6453 91.2224 76.6724L90.3198 79.1395C90.3056 79.1839 90.2774 79.2225 90.2395 79.2496C90.2015 79.2767 90.1558 79.2908 90.1092 79.2899Z" fill="black"/>
<path d="M84.6574 77.1837L87.5998 76.5459L86.4265 77.4003" fill="#0E0908"/>
<path d="M85.7889 77.1837L88.7313 76.5459L87.5639 77.4003" fill="#0E0908"/>
<path d="M80.4995 76.7448C80.6257 76.7448 80.7281 76.6424 80.7281 76.5161C80.7281 76.3898 80.6257 76.2875 80.4995 76.2875C80.3732 76.2875 80.2708 76.3898 80.2708 76.5161C80.2708 76.6424 80.3732 76.7448 80.4995 76.7448Z" fill="white"/>
<path d="M79.9941 76.6781C80.0839 76.6781 80.1566 76.6054 80.1566 76.5156C80.1566 76.4259 80.0839 76.3532 79.9941 76.3532C79.9044 76.3532 79.8317 76.4259 79.8317 76.5156C79.8317 76.6054 79.9044 76.6781 79.9941 76.6781Z" fill="white"/>
<path d="M77.8703 77.9242C77.8398 77.9252 77.8101 77.915 77.7865 77.8957C77.7629 77.8764 77.7471 77.8492 77.742 77.8192C77.7368 77.7892 77.7427 77.7583 77.7586 77.7323C77.7744 77.7062 77.7991 77.6868 77.8282 77.6775C78.6128 77.397 79.4173 77.1758 80.2351 77.0156C80.2517 77.0112 80.2692 77.0104 80.2862 77.0133C80.3032 77.0162 80.3194 77.0227 80.3336 77.0324C80.3479 77.0421 80.3599 77.0548 80.3689 77.0695C80.3778 77.0843 80.3835 77.1008 80.3855 77.1179C80.389 77.1346 80.3891 77.1517 80.3858 77.1684C80.3825 77.185 80.3758 77.2008 80.3663 77.2149C80.3567 77.2289 80.3445 77.2409 80.3302 77.2501C80.3159 77.2593 80.2999 77.2655 80.2832 77.2684C79.4876 77.4252 78.7051 77.6424 77.9425 77.9182L77.8703 77.9242Z" fill="black"/>
<path d="M77.9845 78.3992C77.9583 78.3986 77.933 78.3903 77.9116 78.3753C77.8901 78.3603 77.8736 78.3393 77.8641 78.3149C77.8584 78.2991 77.856 78.2824 77.8568 78.2656C77.8577 78.2488 77.8619 78.2324 77.8692 78.2173C77.8765 78.2022 77.8867 78.1886 77.8992 78.1775C77.9118 78.1664 77.9265 78.1579 77.9424 78.1525C77.9424 78.1525 78.4418 77.9659 79.1458 77.7734C79.1785 77.7658 79.2128 77.7709 79.2418 77.7877C79.2708 77.8044 79.2924 77.8316 79.3022 77.8636C79.3068 77.8798 79.308 77.8968 79.3059 77.9135C79.3038 77.9302 79.2984 77.9463 79.29 77.9608C79.2816 77.9754 79.2704 77.9882 79.257 77.9983C79.2436 78.0085 79.2283 78.0159 79.212 78.0201C78.5501 78.2066 78.0627 78.3932 78.0567 78.3932L77.9845 78.3992Z" fill="black"/>
<path opacity="0.4" d="M113.678 80.3308L112.625 79.9457C110.91 79.344 109.34 78.2188 107.685 78.315C106.095 78.5058 104.575 79.0754 103.251 79.9758L102.149 80.3488L101.409 77.7976L102.504 77.4726C102.751 77.4004 108.636 75.6976 113.534 77.5027L114.539 77.8698L113.678 80.3308Z" fill="#F57A59"/>
<path d="M113.865 79.0611L112.625 78.6098C108.54 77.1056 103.299 78.6098 103.25 78.6098L101.987 78.9829L101.241 76.4557L102.504 76.0826C102.751 76.0104 108.636 74.3076 113.534 76.0826L114.773 76.5399L113.865 79.0611Z" fill="#582C22"/>
<path d="M114.208 78.0745L113.925 78.8507L112.685 78.3994C108.606 76.9072 103.359 78.3994 103.311 78.4295L102.041 78.8026L101.812 78.0143L102.943 77.6894C102.992 77.6894 108.636 76.1671 113.034 77.6894L114.208 78.0745Z" fill="#0E0908"/>
<path d="M102.041 76.9428C101.988 76.9412 101.937 76.9237 101.894 76.8925C101.851 76.8614 101.818 76.8182 101.8 76.7683C101.79 76.7367 101.786 76.7034 101.789 76.6702C101.791 76.6371 101.8 76.6048 101.815 76.5752C101.83 76.5455 101.851 76.5192 101.877 76.4976C101.902 76.476 101.931 76.4596 101.963 76.4494C103.275 76.0317 104.629 75.7593 106 75.6371C106.034 75.6346 106.067 75.639 106.099 75.6499C106.13 75.6608 106.16 75.6781 106.184 75.7006C106.209 75.7231 106.229 75.7504 106.243 75.7809C106.257 75.8113 106.264 75.8443 106.265 75.8778C106.267 75.9107 106.263 75.9437 106.253 75.975C106.242 76.0062 106.226 76.0351 106.204 76.0597C106.182 76.0844 106.155 76.1045 106.125 76.1187C106.096 76.1329 106.063 76.141 106.03 76.1425C104.703 76.2644 103.392 76.5266 102.119 76.9248C102.095 76.9364 102.068 76.9426 102.041 76.9428Z" fill="white"/>
<path d="M113.865 79.2899H113.786L112.571 78.8206C108.533 77.3403 103.389 78.8206 103.341 78.8567L102.077 79.2297C102.018 79.2451 101.955 79.2375 101.902 79.2084C101.848 79.1794 101.808 79.1311 101.788 79.0733L101.042 76.5461C101.03 76.5185 101.024 76.4888 101.024 76.4588C101.024 76.4288 101.03 76.3992 101.042 76.3716C101.071 76.3166 101.121 76.2755 101.18 76.2572L102.444 75.8842C105.395 75.0785 108.481 74.8961 111.506 75.3486C111.536 75.3537 111.564 75.3646 111.589 75.3807C111.615 75.3968 111.637 75.4177 111.654 75.4423C111.671 75.4669 111.684 75.4947 111.69 75.524C111.697 75.5534 111.698 75.5838 111.692 75.6134C111.681 75.6738 111.646 75.7271 111.595 75.762C111.545 75.7969 111.482 75.8105 111.422 75.7999C108.467 75.3575 105.452 75.5358 102.57 76.3234L101.529 76.6363L102.131 78.7243L103.184 78.3994C103.232 78.3994 108.539 76.8469 112.703 78.3994L113.726 78.7724L114.478 76.7326L113.455 76.3535C113.185 76.2572 112.914 76.167 112.637 76.0888C112.579 76.072 112.53 76.0328 112.5 75.9797C112.471 75.9267 112.464 75.8642 112.481 75.806C112.497 75.7477 112.537 75.6985 112.59 75.6692C112.643 75.6399 112.705 75.6328 112.764 75.6495C113.046 75.7277 113.365 75.824 113.612 75.9263L114.851 76.3776C114.907 76.401 114.952 76.4438 114.978 76.4979C114.991 76.5251 114.998 76.5549 114.998 76.5852C114.998 76.6154 114.991 76.6453 114.978 76.6724L114.075 79.1395C114.061 79.1839 114.033 79.2225 113.995 79.2496C113.957 79.2767 113.911 79.2908 113.865 79.2899Z" fill="black"/>
<path d="M108.413 77.1837L111.355 76.5459L110.182 77.4003" fill="#0E0908"/>
<path d="M109.544 77.1837L112.487 76.5459L111.319 77.4003" fill="#0E0908"/>
<path d="M104.255 76.7448C104.382 76.7448 104.484 76.6424 104.484 76.5161C104.484 76.3898 104.382 76.2875 104.255 76.2875C104.129 76.2875 104.027 76.3898 104.027 76.5161C104.027 76.6424 104.129 76.7448 104.255 76.7448Z" fill="white"/>
<path d="M103.75 76.6781C103.84 76.6781 103.913 76.6054 103.913 76.5156C103.913 76.4259 103.84 76.3532 103.75 76.3532C103.66 76.3532 103.588 76.4259 103.588 76.5156C103.588 76.6054 103.66 76.6781 103.75 76.6781Z" fill="white"/>
<path d="M101.626 77.9242C101.596 77.9252 101.566 77.915 101.542 77.8957C101.519 77.8764 101.503 77.8492 101.498 77.8192C101.493 77.7892 101.498 77.7583 101.514 77.7323C101.53 77.7062 101.555 77.6868 101.584 77.6775C102.369 77.397 103.173 77.1758 103.991 77.0156C104.007 77.0112 104.025 77.0104 104.042 77.0133C104.059 77.0162 104.075 77.0227 104.089 77.0324C104.104 77.0421 104.116 77.0548 104.125 77.0695C104.134 77.0843 104.139 77.1008 104.141 77.1179C104.145 77.1346 104.145 77.1517 104.141 77.1684C104.138 77.185 104.132 77.2008 104.122 77.2149C104.112 77.2289 104.1 77.2409 104.086 77.2501C104.072 77.2593 104.056 77.2655 104.039 77.2684C103.243 77.4252 102.461 77.6424 101.698 77.9182L101.626 77.9242Z" fill="black"/>
<path d="M101.74 78.3992C101.714 78.3986 101.688 78.3903 101.667 78.3753C101.646 78.3603 101.629 78.3393 101.62 78.3149C101.614 78.2991 101.611 78.2824 101.612 78.2656C101.613 78.2488 101.617 78.2324 101.625 78.2173C101.632 78.2022 101.642 78.1886 101.655 78.1775C101.667 78.1664 101.682 78.1579 101.698 78.1525C101.698 78.1525 102.197 77.9659 102.901 77.7734C102.934 77.7658 102.968 77.7709 102.997 77.7877C103.026 77.8044 103.048 77.8316 103.058 77.8636C103.062 77.8798 103.063 77.8968 103.061 77.9135C103.059 77.9302 103.054 77.9463 103.045 77.9608C103.037 77.9754 103.026 77.9882 103.012 77.9983C102.999 78.0085 102.984 78.0159 102.967 78.0201C102.306 78.2066 101.818 78.3932 101.812 78.3932L101.74 78.3992Z" fill="black"/>
<path d="M84.2397 98.4083C88.629 98.4083 92.1873 94.85 92.1873 90.4607C92.1873 86.0713 88.629 82.513 84.2397 82.513C79.8503 82.513 76.292 86.0713 76.292 90.4607C76.292 94.85 79.8503 98.4083 84.2397 98.4083Z" fill="white"/>
<path d="M84.3204 95.2713C86.2092 95.2713 87.7404 93.3311 87.7404 90.9377C87.7404 88.5443 86.2092 86.604 84.3204 86.604C82.4316 86.604 80.9004 88.5443 80.9004 90.9377C80.9004 93.3311 82.4316 95.2713 84.3204 95.2713Z" fill="#D2F2FF"/>
<path d="M84.1668 94.2773C86.0333 94.2773 87.5464 92.3625 87.5464 90.0003C87.5464 87.6382 86.0333 85.7233 84.1668 85.7233C82.3004 85.7233 80.7873 87.6382 80.7873 90.0003C80.7873 92.3625 82.3004 94.2773 84.1668 94.2773Z" fill="#181828"/>
<path d="M82.9622 89.7978C83.6499 89.7978 84.2073 89.1897 84.2073 88.4395C84.2073 87.6893 83.6499 87.0812 82.9622 87.0812C82.2746 87.0812 81.7171 87.6893 81.7171 88.4395C81.7171 89.1897 82.2746 89.7978 82.9622 89.7978Z" fill="white"/>
<path d="M84.2395 98.8613C82.3636 98.8577 80.543 98.2251 79.069 97.0646C77.5951 95.9041 76.5529 94.2828 76.1092 92.4601C75.6655 90.6374 75.8459 88.7185 76.6215 87.0104C77.3972 85.3023 78.7233 83.9036 80.3877 83.0382C82.0521 82.1728 83.9587 81.8906 85.8025 82.2367C87.6462 82.5828 89.3207 83.5373 90.5579 84.9474C91.7951 86.3576 92.5237 88.1419 92.6271 90.0151C92.7304 91.8882 92.2026 93.7418 91.1281 95.2796C91.0557 95.3699 90.9515 95.4291 90.8368 95.445C90.7221 95.4609 90.6057 95.4322 90.5115 95.365C90.4173 95.2977 90.3525 95.1968 90.3303 95.0832C90.3081 94.9696 90.3303 94.8518 90.3923 94.754C91.3454 93.3748 91.8085 91.7159 91.7077 90.0425C91.6069 88.369 90.9479 86.7777 89.8362 85.5229C88.7244 84.2681 87.2241 83.4223 85.575 83.1206C83.9258 82.819 82.2232 83.0789 80.7393 83.8589C79.2553 84.6389 78.0757 85.8939 77.389 87.4233C76.7023 88.9527 76.5483 90.6682 76.9514 92.2955C77.3545 93.9227 78.2916 95.3679 79.6128 96.3998C80.934 97.4318 82.5631 97.991 84.2395 97.9881C85.9977 97.985 87.6995 97.3672 89.0502 96.2417C89.0951 96.2036 89.1472 96.1749 89.2034 96.1571C89.2595 96.1393 89.3187 96.1328 89.3773 96.1381C89.436 96.1434 89.4931 96.1602 89.5452 96.1877C89.5973 96.2152 89.6434 96.2528 89.6808 96.2983C89.7191 96.3439 89.7481 96.3966 89.7659 96.4535C89.7838 96.5103 89.7903 96.5701 89.7851 96.6294C89.7798 96.6887 89.7629 96.7464 89.7353 96.7992C89.7077 96.852 89.67 96.8988 89.6242 96.937C88.1082 98.186 86.2038 98.8666 84.2395 98.8613Z" fill="black"/>
<path d="M85.703 92.3284C85.9396 92.3284 86.1315 92.1365 86.1315 91.8999C86.1315 91.6632 85.9396 91.4713 85.703 91.4713C85.4663 91.4713 85.2745 91.6632 85.2745 91.8999C85.2745 92.1365 85.4663 92.3284 85.703 92.3284Z" fill="white"/>
<path d="M106.598 98.4083C110.987 98.4083 114.545 94.85 114.545 90.4607C114.545 86.0713 110.987 82.513 106.598 82.513C102.208 82.513 98.65 86.0713 98.65 90.4607C98.65 94.85 102.208 98.4083 106.598 98.4083Z" fill="white"/>
<path d="M106.678 95.2713C108.567 95.2713 110.098 93.3311 110.098 90.9377C110.098 88.5443 108.567 86.604 106.678 86.604C104.79 86.604 103.258 88.5443 103.258 90.9377C103.258 93.3311 104.79 95.2713 106.678 95.2713Z" fill="#D2F2FF"/>
<path d="M106.525 94.2774C108.391 94.2774 109.904 92.3625 109.904 90.0003C109.904 87.6382 108.391 85.7233 106.525 85.7233C104.658 85.7233 103.145 87.6382 103.145 90.0003C103.145 92.3625 104.658 94.2774 106.525 94.2774Z" fill="#181828"/>
<path d="M105.32 89.7978C106.008 89.7978 106.565 89.1897 106.565 88.4395C106.565 87.6893 106.008 87.0812 105.32 87.0812C104.633 87.0812 104.075 87.6893 104.075 88.4395C104.075 89.1897 104.633 89.7978 105.32 89.7978Z" fill="white"/>
<path d="M106.598 98.8613C104.722 98.8577 102.901 98.2251 101.427 97.0646C99.9531 95.9041 98.9109 94.2829 98.4672 92.4601C98.0235 90.6374 98.2039 88.7185 98.9796 87.0104C99.7552 85.3023 101.081 83.9036 102.746 83.0382C104.41 82.1728 106.317 81.8906 108.161 82.2367C110.004 82.5828 111.679 83.5373 112.916 84.9474C114.153 86.3576 114.882 88.1419 114.985 90.0151C115.088 91.8882 114.561 93.7419 113.486 95.2796C113.414 95.3699 113.31 95.4291 113.195 95.445C113.08 95.4609 112.964 95.4323 112.87 95.365C112.775 95.2977 112.711 95.1969 112.688 95.0832C112.666 94.9696 112.688 94.8518 112.75 94.754C113.703 93.3748 114.167 91.7159 114.066 90.0425C113.965 88.369 113.306 86.7777 112.194 85.5229C111.082 84.2681 109.582 83.4223 107.933 83.1206C106.284 82.819 104.581 83.0789 103.097 83.8589C101.613 84.6389 100.434 85.8939 99.7471 87.4233C99.0604 88.9527 98.9063 90.6682 99.3094 92.2955C99.7126 93.9227 100.65 95.3679 101.971 96.3999C103.292 97.4318 104.921 97.991 106.598 97.9881C108.356 97.985 110.058 97.3672 111.408 96.2417C111.453 96.2036 111.505 96.1749 111.561 96.1571C111.618 96.1393 111.677 96.1329 111.735 96.1381C111.794 96.1434 111.851 96.1603 111.903 96.1878C111.955 96.2153 112.001 96.2528 112.039 96.2983C112.077 96.3439 112.106 96.3967 112.124 96.4535C112.142 96.5103 112.148 96.5701 112.143 96.6294C112.138 96.6887 112.121 96.7465 112.093 96.7992C112.066 96.852 112.028 96.8989 111.982 96.937C110.466 98.186 108.562 98.8666 106.598 98.8613Z" fill="black"/>
<path d="M108.061 92.3284C108.298 92.3284 108.489 92.1365 108.489 91.8999C108.489 91.6632 108.298 91.4713 108.061 91.4713C107.824 91.4713 107.632 91.6632 107.632 91.8999C107.632 92.1365 107.824 92.3284 108.061 92.3284Z" fill="white"/>
<defs>
<filter id="filter0_b_379_73" x="-12.2637" y="-12.2637" width="210.527" height="210.527" filterUnits="userSpaceOnUse" color-interpolation-filters="sRGB">
<feFlood flood-opacity="0" result="BackgroundImageFix"/>
<feGaussianBlur in="BackgroundImage" stdDeviation="6.13187"/>
<feComposite in2="SourceAlpha" operator="in" result="effect1_backgroundBlur_379_73"/>
<feBlend mode="normal" in="SourceGraphic" in2="effect1_backgroundBlur_379_73" result="shape"/>
</filter>
</defs>
</svg>
