<svg width="115" height="115" viewBox="0 0 115 115" fill="none" xmlns="http://www.w3.org/2000/svg">
<circle cx="57.5" cy="57.5" r="57.5" fill="#F0DB4F"/>
<path d="M49.569 35.0287H38.9943C38.9943 35.0287 38.8621 63.1178 38.7299 63.7787C38.7299 64.1091 38.3507 67.4137 36.8132 69.1321C35.6897 70.3879 34.4298 70.7183 31.0632 70.7183C28.4195 70.7183 25.1149 69.727 23.9253 69.1982C23.7931 69.727 21.8103 77.9885 21.8103 77.9885C21.8103 77.9885 24.7845 79.9712 29.4109 80.6321C34.0374 81.2931 39.3247 79.9712 39.3247 79.9712C39.3247 79.9712 42.9598 78.6494 45.273 76.0057C47.5862 73.362 49.569 68.0747 49.569 63.7787V35.0287Z" fill="white"/>
<path d="M89.4885 39.523L84.2672 47.9166C84.2672 47.9166 77.9885 43.4885 73.175 43.4885C70.3879 43.4885 67.0023 44.9425 67.0023 46.7376C67.0023 55.1867 90.6782 49.5689 90.6782 66.9398C90.6782 78.9799 78.319 80.6321 73.175 80.6321C62.7874 80.6321 54.1954 75.0144 54.1954 75.0144L58.8218 65.431C58.8218 65.431 64.4397 70.5312 73.175 70.5312C77.658 70.5312 78.9799 70.054 78.9799 66.9393C78.9799 61.4655 56.1782 63.1178 56.1782 49.5689C56.1782 42.6293 59.9878 34.3678 73.175 34.3678C83.2759 34.3678 89.4885 39.523 89.4885 39.523Z" fill="white"/>
</svg>
