<svg width="115" height="115" viewBox="0 0 115 115" fill="none" xmlns="http://www.w3.org/2000/svg">
<circle cx="57.5" cy="57.5" r="57.5" fill="#0769AD"/>
<path d="M40.0839 48.3901C33.7712 34.65 38.9943 27.7585 38.9943 27.7585C38.9943 27.7585 29.506 33.7068 32.6493 47.9166C34.1694 55.5172 40.977 61.8179 42.2988 62.9856C48.6215 68.3657 57.8888 69.6654 61.3642 69.3965C77.3276 68.1617 81.6236 55.5172 81.6236 55.5172C81.6236 55.5172 76.3362 63.7125 61.4655 62.7211C54.6568 62.7211 43.2902 55.3189 40.0839 48.3901Z" fill="white"/>
<path d="M52.9397 38.6338C47.8183 28.9121 51.8823 23.0229 51.8823 23.0229C51.8823 23.0229 45.2731 27.0977 47.2127 38.5819C48.7738 44.8325 53.3668 48.6084 54.9709 49.7235C59.7786 53.5276 66.4064 53.8663 68.9177 53.5345C80.6983 52.4109 82.4856 43.2902 82.4856 43.2902C82.4856 43.2902 79.8419 48.3793 68.9622 48.5115C63.2652 48.7865 56.096 44.4674 52.9397 38.6338Z" fill="white"/>
<path d="M63.4482 30.4023C60.2512 24.454 62.1265 20.819 62.1265 20.819C62.1265 20.819 58.3592 23.1322 59.615 30.4023C60.6063 34.2356 63.4482 36.5327 64.4397 37.2098C67.4137 39.523 71.4901 39.872 73.0317 39.6552C80.3017 38.9282 80.9627 34.0374 80.9627 34.0374C80.9627 34.0374 79.6593 36.538 73.0316 36.3506C69.5287 36.2184 65.4178 33.9713 63.4482 30.4023Z" fill="white"/>
<path d="M31.0632 80.6322H27.7586L28.4195 77.9885H31.7241L31.0632 80.6322Z" fill="white"/>
<path d="M26.4368 94.5115C25.4454 94.842 22.4713 94.6437 22.4713 94.6437L22.6695 91.5374C24.6523 91.5374 25.1149 91.5374 25.4454 90.2155C26.6846 85.2586 27.0977 81.954 27.0977 81.954H30.7328C30.7328 81.954 29.7414 86.25 29.0805 90.2155C28.6399 92.8592 27.4282 94.1811 26.4368 94.5115Z" fill="white"/>
<path fill-rule="evenodd" clip-rule="evenodd" d="M46.2643 80.6323C46.2643 79.3104 45.9339 74.684 39.9857 74.684C34.0374 74.6839 31.7242 81.6236 31.7242 84.5978C31.7242 85.2587 31.3937 89.8851 38.9943 89.8851C41.638 89.8851 45.6035 89.8851 45.6035 89.8851V87.2415H44.2816C44.2816 87.2415 46.2643 83.2759 46.2643 80.6323ZM39.9857 77.9886C38.0028 77.9886 35.3592 79.3105 35.3592 84.5978C35.3592 86.7756 36.6811 87.2415 38.9943 87.2415C42.6293 87.2415 42.9597 81.2932 42.9597 80.6323C42.9597 78.3191 40.977 77.9886 39.9857 77.9886Z" fill="white"/>
<path d="M52.0505 77.9885H49.0196C48.9551 77.9885 48.9 78.0332 48.8887 78.0967C48.7069 79.1121 47.3066 86.9366 47.2558 87.2414C46.9804 88.8937 48.5276 89.8851 49.8994 89.8851H56.7331C56.7969 89.8851 56.8479 89.8398 56.8601 89.7772L59.1214 78.1473C59.1374 78.065 59.0744 77.9885 58.9905 77.9885H55.9593C55.8947 77.9885 55.8394 78.0348 55.828 78.0983L54.2402 86.9585C54.2137 87.1061 54.0932 87.2175 53.9435 87.2263C53.2146 87.2694 51.1388 87.3246 50.8908 86.5805C50.6766 85.9377 51.9665 79.2501 52.1823 78.1433C52.1984 78.0608 52.1344 77.9885 52.0505 77.9885Z" fill="white"/>
<path fill-rule="evenodd" clip-rule="evenodd" d="M64.1095 77.9884C64.1095 77.9884 61.1089 77.9884 59.6587 82.6148C58.0014 87.9022 59.9787 89.141 61.4658 89.885C61.9117 90.1081 68.0748 90.2155 68.7359 89.885C69.7271 89.885 69.3968 87.2413 69.3968 87.2413C69.3968 87.2413 63.4481 87.2413 63.1178 87.2413C62.1872 87.2413 62.4569 85.2585 62.4569 85.2585C62.4569 85.2585 69.9442 85.372 70.0577 85.2585C70.1712 85.145 70.7186 84.5976 70.7186 81.9539C70.7186 80.6321 70.7186 78.5172 68.075 77.9884C66.5564 77.6846 64.1095 77.9884 64.1095 77.9884ZM65.7617 80.6321C62.7876 80.6321 62.7876 82.6148 62.7876 82.6148H67.414C67.414 82.6148 67.414 80.6321 65.7617 80.6321Z" fill="white"/>
<path d="M84.5977 86.5804V89.885H80.6322L80.9626 86.5804L79.9713 81.954H83.2759V84.2672L88.5632 76.6666H92.8592L84.5977 86.5804Z" fill="white"/>
<path d="M74.023 89.8851H70.7184L73.3621 77.9885H81.6236L83.2759 81.2931H76.0058L74.023 89.8851Z" fill="white"/>
</svg>
