<svg width="231" height="161" viewBox="0 0 231 161" fill="none" xmlns="http://www.w3.org/2000/svg">
<path d="M226.533 37.7206V122.842C226.528 125.933 225.296 128.895 223.108 131.079C220.92 133.262 217.956 134.489 214.865 134.489H193.258L182.167 151.906C182.031 152.127 181.841 152.31 181.615 152.436C181.388 152.563 181.133 152.63 180.874 152.63C180.615 152.63 180.36 152.563 180.133 152.436C179.907 152.31 179.717 152.127 179.581 151.906L169.216 134.51H75.3756C72.2866 134.51 69.3241 133.283 67.1398 131.099C64.9555 128.915 63.7284 125.952 63.7284 122.863V37.742C63.7284 34.6473 64.9578 31.6794 67.1461 29.4911C69.3344 27.3028 72.3023 26.0734 75.397 26.0734H214.8C216.336 26.065 217.859 26.3598 219.281 26.9411C220.702 27.5224 221.995 28.3787 223.085 29.4608C224.175 30.5429 225.041 31.8295 225.633 33.247C226.224 34.6644 226.53 36.1847 226.533 37.7206V37.7206Z" fill="#F5F5F5"/>
<path d="M174.666 92.1524V27.398L165.113 26.3295L160.24 109.677L154.085 112.861L148.999 113.716L138.314 113.395L141.028 113.972L122.584 110.125L76.5085 111.621C75.0688 111.621 73.6881 111.049 72.6701 110.031C71.6521 109.013 71.0802 107.633 71.0802 106.193V14.7677C71.0809 13.5252 71.283 12.2911 71.6786 11.1133C69.2713 11.831 67.1599 13.3064 65.6583 15.3201C64.1567 17.3338 63.345 19.7784 63.3439 22.2903V107.39C63.3495 110.483 64.5807 113.448 66.7678 115.635C68.9548 117.822 71.9195 119.053 75.0125 119.059H97.794L131.71 118.93L143.571 119.059H157.612C163.104 119.059 171.93 119.059 174.709 114.229C177.487 109.399 174.666 100.167 174.666 92.1524Z" fill="#DBCEC8"/>
<path d="M78.9873 117.371C83.142 117.371 86.51 114.003 86.51 109.848C86.51 105.694 83.142 102.326 78.9873 102.326C74.8327 102.326 71.4647 105.694 71.4647 109.848C71.4647 114.003 74.8327 117.371 78.9873 117.371Z" fill="#DBCEC8"/>
<path d="M92.3872 106.92C94.2403 106.92 95.7425 105.418 95.7425 103.565C95.7425 101.712 94.2403 100.209 92.3872 100.209C90.5341 100.209 89.0319 101.712 89.0319 103.565C89.0319 105.418 90.5341 106.92 92.3872 106.92Z" fill="#DBCEC8"/>
<path d="M161.287 111.172C162.716 111.172 163.873 110.015 163.873 108.586C163.873 107.158 162.716 106 161.287 106C159.859 106 158.702 107.158 158.702 108.586C158.702 110.015 159.859 111.172 161.287 111.172Z" fill="#DBCEC8"/>
<path d="M212.001 59.0061H88.6044C88.0376 59.0061 87.494 58.781 87.0932 58.3802C86.6924 57.9794 86.4673 57.4358 86.4673 56.869C86.4673 56.3022 86.6924 55.7587 87.0932 55.3579C87.494 54.9571 88.0376 54.7319 88.6044 54.7319H212.001C212.568 54.7319 213.111 54.9571 213.512 55.3579C213.913 55.7587 214.138 56.3022 214.138 56.869C214.138 57.4358 213.913 57.9794 213.512 58.3802C213.111 58.781 212.568 59.0061 212.001 59.0061Z" fill="#1F618D"/>
<path d="M212.001 78.7527H165.476C164.909 78.7527 164.366 78.5276 163.965 78.1268C163.564 77.726 163.339 77.1824 163.339 76.6156C163.339 76.0488 163.564 75.5052 163.965 75.1045C164.366 74.7037 164.909 74.4785 165.476 74.4785H212.001C212.568 74.4785 213.111 74.7037 213.512 75.1045C213.913 75.5052 214.138 76.0488 214.138 76.6156C214.138 77.1824 213.913 77.726 213.512 78.1268C213.111 78.5276 212.568 78.7527 212.001 78.7527Z" fill="#1F618D"/>
<path d="M212.001 98.4778H142.267C141.7 98.4778 141.157 98.2527 140.756 97.8519C140.355 97.4511 140.13 96.9075 140.13 96.3407C140.13 95.7739 140.355 95.2303 140.756 94.8296C141.157 94.4288 141.7 94.2036 142.267 94.2036H212.001C212.568 94.2036 213.111 94.4288 213.512 94.8296C213.913 95.2303 214.138 95.7739 214.138 96.3407C214.138 96.9075 213.913 97.4511 213.512 97.8519C213.111 98.2527 212.568 98.4778 212.001 98.4778Z" fill="#1F618D"/>
<path d="M181.654 160.027L168.084 137.289H71.9138C69.0305 137.283 66.267 136.135 64.2282 134.096C62.1894 132.057 61.0415 129.294 61.0359 126.411V36.8873C61.0416 32.8327 62.6562 28.9461 65.5252 26.0811C68.3942 23.2161 72.283 21.6069 76.3376 21.6069H220.122C223.007 21.6069 225.774 22.753 227.814 24.793C229.854 26.833 231 29.5998 231 32.4848V126.411C230.994 129.294 229.846 132.057 227.808 134.096C225.769 136.135 223.005 137.283 220.122 137.289H196.08L181.654 160.027ZM76.2521 28.8518C74.119 28.8517 72.0729 29.6976 70.5626 31.204C69.0522 32.7103 68.2009 34.7542 68.1952 36.8873V126.411C68.2009 127.371 68.5861 128.289 69.2668 128.966C69.9476 129.643 70.8684 130.022 71.8283 130.022H172.123L181.782 146.243L192.105 130.044H220.122C221.082 130.044 222.003 129.664 222.684 128.987C223.364 128.311 223.75 127.392 223.755 126.432V32.4848C223.755 31.5213 223.372 30.5972 222.691 29.9158C222.01 29.2345 221.086 28.8518 220.122 28.8518H76.2521Z" fill="#1F618D"/>
<path d="M4.46648 16.1145V101.235C4.47214 104.327 5.70401 107.289 7.89168 109.473C10.0794 111.656 13.0441 112.883 16.1351 112.883H37.6771L48.7687 130.3C48.9017 130.521 49.0897 130.705 49.3143 130.832C49.539 130.959 49.7928 131.026 50.051 131.026C50.3091 131.026 50.5629 130.959 50.7876 130.832C51.0123 130.705 51.2003 130.521 51.3332 130.3L61.7196 112.925H155.539C158.63 112.925 161.594 111.699 163.782 109.515C165.97 107.332 167.202 104.369 167.207 101.278V16.1359C167.207 13.0412 165.978 10.0732 163.79 7.88496C161.601 5.69667 158.633 4.4673 155.539 4.4673H16.1351C14.6038 4.46449 13.0869 4.76366 11.6713 5.34773C10.2557 5.9318 8.96924 6.78931 7.88543 7.87113C6.80162 8.95296 5.94178 10.2379 5.35511 11.6524C4.76845 13.0669 4.46648 14.5832 4.46648 16.1145V16.1145Z" fill="#F5F5F5"/>
<path d="M78.9234 102.838H151.585C152.298 102.838 153.004 102.698 153.662 102.425C154.321 102.152 154.919 101.752 155.423 101.248C155.927 100.744 156.327 100.146 156.6 99.4871C156.873 98.8285 157.013 98.1227 157.013 97.4098V6.06991C156.998 5.69357 157.09 5.32057 157.278 4.99441C157.466 4.66825 157.744 4.40234 158.077 4.22766C158.411 4.05297 158.788 3.9767 159.163 4.00774C159.538 4.03877 159.897 4.17584 160.198 4.40297C161.601 5.48907 162.736 6.88188 163.518 8.47474C164.3 10.0676 164.706 11.8182 164.707 13.5925V108.373C164.701 108.902 164.487 109.408 164.111 109.78C163.735 110.152 163.227 110.361 162.698 110.361H130.171H96.2554H84.3944H62.8524" fill="#DBCEC8"/>
<path d="M151.948 104.483C156.103 104.483 159.471 101.115 159.471 96.9606C159.471 92.806 156.103 89.438 151.948 89.438C147.794 89.438 144.426 92.806 144.426 96.9606C144.426 101.115 147.794 104.483 151.948 104.483Z" fill="#DBCEC8"/>
<path d="M138.549 94.0118C140.402 94.0118 141.904 92.5096 141.904 90.6565C141.904 88.8035 140.402 87.3013 138.549 87.3013C136.696 87.3013 135.193 88.8035 135.193 90.6565C135.193 92.5096 136.696 94.0118 138.549 94.0118Z" fill="#DBCEC8"/>
<path d="M80.0132 106.343C83.2236 106.343 85.8261 103.741 85.8261 100.53C85.8261 97.3198 83.2236 94.7173 80.0132 94.7173C76.8028 94.7173 74.2003 97.3198 74.2003 100.53C74.2003 103.741 76.8028 106.343 80.0132 106.343Z" fill="#DBCEC8"/>
<path d="M69.6483 98.2641C71.0765 98.2641 72.2342 97.1063 72.2342 95.6782C72.2342 94.25 71.0765 93.0923 69.6483 93.0923C68.2202 93.0923 67.0624 94.25 67.0624 95.6782C67.0624 97.1063 68.2202 98.2641 69.6483 98.2641Z" fill="#DBCEC8"/>
<path d="M142.31 37.3992H18.9347C18.3679 37.3992 17.8244 37.174 17.4236 36.7732C17.0228 36.3725 16.7976 35.8289 16.7976 35.2621C16.7976 34.6953 17.0228 34.1517 17.4236 33.7509C17.8244 33.3502 18.3679 33.125 18.9347 33.125H142.31C142.877 33.125 143.42 33.3502 143.821 33.7509C144.222 34.1517 144.447 34.6953 144.447 35.2621C144.447 35.8289 144.222 36.3725 143.821 36.7732C143.42 37.174 142.877 37.3992 142.31 37.3992Z" fill="#1F618D"/>
<path d="M65.4596 57.1468H18.9347C18.3679 57.1468 17.8244 56.9216 17.4236 56.5208C17.0228 56.12 16.7976 55.5765 16.7976 55.0097C16.7976 54.4429 17.0228 53.8993 17.4236 53.4985C17.8244 53.0977 18.3679 52.8726 18.9347 52.8726H65.4596C66.0263 52.8726 66.5699 53.0977 66.9707 53.4985C67.3715 53.8993 67.5967 54.4429 67.5967 55.0097C67.5967 55.5765 67.3715 56.12 66.9707 56.5208C66.5699 56.9216 66.0263 57.1468 65.4596 57.1468Z" fill="#1F618D"/>
<path d="M88.6685 76.8724H18.9347C18.3679 76.8724 17.8244 76.6472 17.4236 76.2464C17.0228 75.8456 16.7976 75.302 16.7976 74.7353C16.7976 74.1685 17.0228 73.6249 17.4236 73.2241C17.8244 72.8233 18.3679 72.5981 18.9347 72.5981H88.6685C89.2353 72.5981 89.7789 72.8233 90.1797 73.2241C90.5805 73.6249 90.8056 74.1685 90.8056 74.7353C90.8056 75.302 90.5805 75.8456 90.1797 76.2464C89.7789 76.6472 89.2353 76.8724 88.6685 76.8724Z" fill="#1F618D"/>
<path d="M49.3458 138.42L34.8562 115.66H5.62059C4.12992 115.66 2.7003 115.068 1.64623 114.014C0.592168 112.96 0 111.53 0 110.04L0 5.62057C0 4.1299 0.592168 2.7003 1.64623 1.64623C2.7003 0.592168 4.12992 0 5.62059 0H164.365C165.856 0 167.285 0.592168 168.339 1.64623C169.393 2.7003 169.985 4.1299 169.985 5.62057V110.04C169.985 111.53 169.393 112.96 168.339 114.014C167.285 115.068 165.856 115.66 164.365 115.66H62.9164L49.3458 138.42ZM7.24479 108.501H35.7324C36.6795 108.497 37.6121 108.734 38.4421 109.19C39.2722 109.647 39.9724 110.307 40.4768 111.108L49.0252 124.7L57.0607 111.236C57.5584 110.374 58.2752 109.659 59.1385 109.164C60.0018 108.668 60.9808 108.41 61.9761 108.415H162.719V7.33026H7.24479V108.501Z" fill="#1F618D"/>
</svg>
