<svg width="115" height="115" viewBox="0 0 115 115" fill="none" xmlns="http://www.w3.org/2000/svg">
<circle cx="57.5" cy="57.5" r="57.5" fill="#23282D"/>
<path d="M56.8938 28.0891C39.8062 28.5594 27.0853 42.4299 28.0891 59.4944C29.0322 75.5274 42.6293 86.9109 56.8938 86.9109C72.0402 86.9109 85.9391 75.9891 86.9111 59.4944C87.9422 41.9954 74.4164 27.6068 56.8938 28.0891Z" stroke="white" stroke-width="3.3046"/>
<path d="M45.2334 82.5092L32.0348 46.2049C32.0348 46.2049 32.5505 45.0219 32.9667 44.2816C33.3829 43.4687 34.1298 42.2988 34.1298 42.2988H43.9511V44.2816H40.3161L50.5603 74.3534C50.5603 74.3534 55.8345 58.5179 55.8477 58.4914C56.5087 56.8172 56.5087 55.8658 55.8477 54.1954C55.8301 54.0074 52.5431 44.2816 52.5431 44.2816H48.5776V42.2988H65.1006V44.2816H61.4655L71.3793 74.3534L75.3449 61.4655C75.3449 61.4655 75.8627 59.0635 76.0057 57.5L76.0155 57.3929C76.186 55.5304 76.2875 54.4218 76.0057 52.5431C75.7186 50.6288 72.0403 44.9426 71.3794 43.2903C71.0489 42.464 70.0574 39.6552 73.3621 37.6725C74.6839 36.8794 76.0057 36.5886 76.0057 36.5886C76.0057 36.5886 77.4333 37.8707 78.2132 38.7828C79.0063 39.6397 79.9845 40.9771 79.9845 40.9771C79.9845 40.9771 80.7115 41.9841 81.0948 42.6294C81.5046 43.2746 82.0466 44.2817 82.0466 44.2817L81.6897 50.2299C81.6897 50.2299 81.5707 51.0995 81.4055 51.8822C81.3517 52.137 81.0618 53.204 81.0618 53.204L71.4388 81.4583C71.4388 81.4583 70.0377 82.2456 69.0661 82.6612C68.1937 83.0767 66.7463 83.5865 66.7463 83.5865L57.8304 59.4827L49.5029 84.1747C49.5029 84.1747 48.7197 83.9711 47.2558 83.408C46.159 82.9862 45.2334 82.5092 45.2334 82.5092Z" fill="white"/>
</svg>
