<svg width="57" height="57" viewBox="0 0 57 57" fill="none" xmlns="http://www.w3.org/2000/svg">
<path fill-rule="evenodd" clip-rule="evenodd" d="M10.6552 0.146729C4.81492 0.146729 0.0804596 4.88118 0.0804596 10.7214V46.4111C0.0804596 52.2514 4.81491 56.9858 10.6552 56.9858H46.3448C52.1851 56.9858 56.9195 52.2514 56.9195 46.4111V10.7214C56.9195 4.88119 52.1851 0.146729 46.3448 0.146729H10.6552ZM33.7874 11.9771H15.2816V45.023H34.4483C34.4483 45.023 42.0489 43.7012 42.0489 35.1092C42.0489 29.4914 38.4138 27.8391 38.4138 27.8391C38.4138 27.8391 40.727 25.5259 40.727 20.8995C40.727 12.9684 33.7874 11.9771 33.7874 11.9771ZM20.569 17.2644H33.1264C33.1264 17.2644 35.4397 17.5949 35.4397 20.8995C35.4397 24.2041 33.1264 25.1954 33.1264 25.1954H20.569V17.2644ZM20.569 30.4828V39.7357H33.1264C33.1264 39.7357 36.8937 39.7357 36.8937 35.1092C36.8937 30.4828 33.1264 30.4828 33.1264 30.4828H20.569Z" fill="white"/>
</svg>
