<svg width="73" height="29" viewBox="0 0 73 29" fill="none" xmlns="http://www.w3.org/2000/svg">
<path d="M24.5948 6.37067L19.9022 9.87372C19.9022 9.87372 18.1518 6.19298 13.6896 6.23867C9.39993 6.28258 6.28729 10.5348 6.28729 14.1697C6.28729 17.8046 9.11236 22.8277 13.6896 22.8276C17.9856 22.8275 19.9022 19.1925 19.9022 19.1925L25.0574 22.1006C25.0574 22.1006 22.3476 28.3794 13.6896 28.3794C5.75865 28.3794 0.00853453 21.7466 0.0747233 14.1697C0.144006 6.23867 5.75861 0.620688 13.6896 0.62085C21.7238 0.621013 24.5948 6.37067 24.5948 6.37067Z" fill="white"/>
<path d="M47.6609 3.46266L44.7529 8.6839C44.7529 8.6839 41.4483 6.23849 37.8132 6.23849C35.952 6.23849 34.1782 6.6902 34.1782 8.55142C34.1782 13.1781 48.3879 8.96479 48.3879 20.4483C48.3879 28.0488 41.4483 28.5115 37.8132 28.5115C29.8822 28.5115 26.2471 25.273 26.2471 25.273L28.8247 19.523C28.8247 19.523 33.1868 22.5632 37.8132 22.5632C39.796 22.5632 41.4483 22.2822 41.4483 20.448C41.4483 16.4827 27.3707 19.4569 27.3707 8.55142C27.3707 5.24711 30.0474 0.488525 37.8132 0.488525C44.8768 0.488525 47.6609 3.46266 47.6609 3.46266Z" fill="white"/>
<path d="M71.454 3.46266L68.546 8.6839C68.546 8.6839 65.2414 6.23849 61.6063 6.23849C59.7451 6.23849 57.9713 6.6902 57.9713 8.55142C57.9713 13.1781 72.181 8.96479 72.181 20.4483C72.181 28.0488 65.2414 28.5115 61.6063 28.5115C53.6753 28.5115 50.0402 25.273 50.0402 25.273L52.6178 19.523C52.6178 19.523 56.9799 22.5632 61.6063 22.5632C63.5891 22.5632 65.2414 22.2822 65.2414 20.448C65.2414 16.4827 51.1638 19.4569 51.1638 8.55142C51.1638 5.24711 53.8405 0.488525 61.6063 0.488525C68.6699 0.488525 71.454 3.46266 71.454 3.46266Z" fill="white"/>
</svg>
