<svg width="49" height="71" viewBox="0 0 49 71" fill="none" xmlns="http://www.w3.org/2000/svg">
<path d="M0.706909 58.9627C0.706909 52.5749 5.88523 47.3966 12.273 47.3966H24.5V58.6323C24.5 65.2025 19.1737 70.5288 12.6035 70.5288H12.273C5.88523 70.5288 0.706909 65.3505 0.706909 58.9627V58.9627Z" fill="#0ACF83"/>
<path d="M0.706909 35.7314C0.706909 29.2524 5.9592 24.0001 12.4382 24.0001H24.5V47.4628H12.4382C5.95921 47.4628 0.706909 42.2105 0.706909 35.7314V35.7314Z" fill="#A259FF"/>
<path d="M0.706909 12.1365C0.706909 5.58442 6.01838 0.272949 12.5704 0.272949H24.5V24H12.5704C6.01839 24 0.706909 18.6885 0.706909 12.1365V12.1365Z" fill="#F24E1E"/>
<path d="M24.5 0.272949H36.4296C42.9816 0.272949 48.2931 5.58442 48.2931 12.1365V12.1365C48.2931 18.6885 42.9816 24 36.4296 24H24.5V0.272949Z" fill="#FF7262"/>
<circle cx="36.0661" cy="35.6321" r="11.5661" fill="#1ABCFE"/>
</svg>
