<svg width="63" height="63" viewBox="0 0 63 63" fill="none" xmlns="http://www.w3.org/2000/svg">
<path d="M61.2912 28.7392L34.253 1.70445C32.6951 0.149297 30.1713 0.149297 28.6082 1.70445L23.0068 7.31645L30.128 14.4376C31.792 13.883 33.6859 14.2571 35.0013 15.5761C36.3327 16.9048 36.6998 18.8218 36.1319 20.4778L42.9894 27.3415C44.6543 26.7656 46.5686 27.1398 47.892 28.4632C49.7523 30.3209 49.7523 33.3241 47.892 35.1818C46.0369 37.0378 43.039 37.0378 41.1839 35.1818C39.7933 33.7868 39.4448 31.7327 40.141 30.0325L33.7195 23.6438V40.4789C34.1733 40.701 34.6015 41.0035 34.9783 41.3768C36.8183 43.2371 36.8183 46.236 34.9783 48.0857C33.1233 49.9461 30.1041 49.9461 28.2464 48.0857C26.3914 46.2307 26.3914 43.2371 28.2464 41.3821C28.7161 40.9177 29.2451 40.5674 29.8078 40.3347V23.3342C29.2478 23.0998 28.7135 22.7618 28.2597 22.2992C26.8531 20.8935 26.5152 18.8368 27.238 17.1162L20.2406 10.0853L1.69999 28.6136C0.151029 30.174 0.151029 32.7005 1.69999 34.261L28.7391 61.293C30.2978 62.8517 32.8216 62.8517 34.3794 61.293L61.2912 34.3821C62.8517 32.827 62.8517 30.3005 61.2912 28.7392Z" fill="white"/>
</svg>
