<svg width="63" height="62" viewBox="0 0 63 62" fill="none" xmlns="http://www.w3.org/2000/svg">
<path d="M0.60492 31.1167C0.604727 12.809 17.7888 0.714573 31.6682 0.714386C45.5476 0.714199 62.7314 12.8079 62.7314 31.117C62.7314 54.5792 41.9127 61.5193 40.2604 61.5193C39.615 61.5193 39.0047 60.197 39.0047 60.197C39.0047 60.197 39.0047 51.2746 39.0047 49.6223C39.0047 46.9786 37.2863 45.6568 37.2863 45.6568C37.2863 45.6568 51.1656 44.9998 51.1656 31.117C51.1656 23.8464 48.1914 22.1941 48.1914 22.1941C48.1914 22.1941 49.5133 14.7125 48.1914 13.8666C45.8782 12.3861 39.269 16.9068 39.269 16.9068C39.269 16.9068 36.2949 15.86 31.338 15.9154C26.3811 15.9708 24.0679 16.9068 24.0679 16.9068C24.0679 16.9068 16.8827 12.0424 15.1454 13.8666C13.8236 15.2545 15.1454 22.1941 15.1454 22.1941C15.1454 22.1941 11.8408 23.846 11.8408 31.1167C11.8408 45.0025 26.0506 45.3263 26.0506 45.6568C23.0762 46.9786 26.2186 49.9081 20.7633 50.3493C19.7719 50.4295 17.7203 49.4825 16.1369 48.3005C15.1455 47.5604 13.7394 45.1267 13.1627 44.6654C11.5104 43.3436 9.52765 43.3436 8.86673 44.3349C9.52765 45.3263 10.519 45.1941 11.8409 47.3091C13.1627 49.424 13.2153 50.765 14.4845 52.266C15.3229 53.2574 17.4587 54.4408 18.4501 54.7775C19.4414 55.1142 24.3983 54.9096 24.3983 54.9096L24.3983 60.197C24.3983 60.197 23.7374 61.5194 23.0762 61.5193C21.0938 61.519 0.605168 54.5792 0.60492 31.1167Z" fill="white"/>
</svg>
