<svg width="117" height="93" viewBox="0 0 117 93" fill="none" xmlns="http://www.w3.org/2000/svg">
<path fill-rule="evenodd" clip-rule="evenodd" d="M34.8219 8.70547C34.8219 3.82191 31 0.106268 26.1164 0.106268H8.70547C3.82191 0.106268 0 3.92818 0 8.81174V26.2227C0 31.1062 3.82191 34.9281 8.70547 34.9281H25.9041L42.0411 62.2124C41.0856 63.5925 40.6609 65.0788 40.6609 66.8836C40.6609 66.8836 40.6609 77.484 40.6609 84.3476C40.6609 89.1781 44.589 93 49.3664 93H66.7773C71.6609 93 75.4828 89.1781 75.4828 84.2945C75.4828 84.2945 75.4828 73.6183 75.4828 66.7774H69.6438C69.6023 73.6183 69.6438 84.4007 69.6438 84.4007C69.6438 85.887 68.3698 87.2671 66.7773 87.2671H49.3664C47.8801 87.2671 46.5 85.9932 46.5 84.3476V66.7773C46.5 65.185 47.7739 64.0172 49.3664 64.0172H66.7773C68.3698 64.0172 69.6534 65.1849 69.6438 66.7774H75.4828C75.4828 61.8938 71.6609 58.1781 66.8304 58.1781H49.3664C48.4109 58.1781 47.5616 58.1781 46.7123 58.6027L31.5308 32.9109C33.5479 31.3185 34.8219 28.8767 34.8219 26.1164V20.3835H81.3218V26.1165C81.3218 31 85.1437 34.8219 90.0273 34.8219H107.438C112.322 34.8219 116.144 31 116.144 26.1165V8.70547C116.144 3.82191 112.322 0 107.438 0C107.438 0 96.8267 0 90.0273 0V5.73287C96.7438 5.77437 107.438 5.73287 107.438 5.73287C109.243 5.73287 110.411 7.11301 110.411 8.70547V26.1164C110.411 27.7089 109.031 29.0891 107.438 29.0891H90.0273C88.4348 29.0891 87.0547 27.7089 87.0547 26.1164V8.70547C87.0547 7.11301 88.4348 5.73287 90.0273 5.73287V0C85.2499 0 81.3218 3.7157 81.3218 8.70547V14.5977H34.8219V8.70547ZM29.089 8.81174C29.089 7.11311 27.815 5.83914 26.1164 5.83914H8.70547C7.11301 5.83914 5.73287 7.21927 5.73287 8.81174C5.73287 8.81174 5.81579 19.5477 5.73287 26.2227C5.73287 27.9213 7.11301 29.1953 8.70547 29.1953H26.1164C27.815 29.1953 29.089 27.8151 29.089 26.2227V8.81174Z" fill="#fff"/>
</svg>
