<svg width="440" height="383" viewBox="0 0 440 383" fill="none" xmlns="http://www.w3.org/2000/svg">
<path d="M179 231.999H261C268.5 231.999 275 238.499 275 245.999V355.499H356.5V138.999L220 26.9994L83.5 138.999V355.499H165.5C165.5 355.499 165.5 288.457 165.5 245.499L179 252.499L192.5 259.499V368.999C192.5 376.5 186.5 382.499 179 382.499H69.5C62 382.499 55.5 376.5 55.5 368.999V160.999L21 189.999C18 192.5 14 191.5 11.5 188.499L2.99999 177.999C-3.57628e-06 175 0.499983 170.5 3.49999 168.499L202.5 5.99943C212.5 -1.99997 227.5 -2.0003 237.5 5.99943L437 168.999C440 171.499 440 174.999 437.5 178.499L428.5 188.999C426 191.999 422 192.499 419 189.999L384.5 161.499V368.999C384.5 376.499 378 382.499 370.5 382.499H261.5C253.5 382.499 247.5 377 247.5 369.499V259.499H192.5L179 252.499L165.5 245.499C165.5 238 172 231.999 179 231.999Z" fill="white"/>
</svg>
