<svg width="33" height="27" viewBox="0 0 43 37" fill="none" xmlns="http://www.w3.org/2000/svg">
<g id="iconMenu" clip-path="url(#clip0_390_251)">
<path id="Vector" fill-rule="evenodd" clip-rule="evenodd" d="M0.17923 3.21166C0.17923 2.41169 0.497018 1.64448 1.06268 1.07881C1.62835 0.513147 2.39556 0.195358 3.19553 0.195358H39.3912C40.1912 0.195358 40.9584 0.513147 41.524 1.07881C42.0897 1.64448 42.4075 2.41169 42.4075 3.21166C42.4075 4.01164 42.0897 4.77884 41.524 5.34451C40.9584 5.91018 40.1912 6.22797 39.3912 6.22797H3.19553C2.39556 6.22797 1.62835 5.91018 1.06268 5.34451C0.497018 4.77884 0.17923 4.01164 0.17923 3.21166Z" fill="white"/>
<path id="Vector_2" fill-rule="evenodd" clip-rule="evenodd" d="M0.179199 18.2935C0.179199 17.4935 0.496987 16.7263 1.06265 16.1606C1.62832 15.5949 2.39553 15.2772 3.1955 15.2772H39.3912C40.1911 15.2772 40.9583 15.5949 41.524 16.1606C42.0897 16.7263 42.4075 17.4935 42.4075 18.2935C42.4075 19.0934 42.0897 19.8606 41.524 20.4263C40.9583 20.992 40.1911 21.3098 39.3912 21.3098H3.1955C2.39553 21.3098 1.62832 20.992 1.06265 20.4263C0.496987 19.8606 0.179199 19.0934 0.179199 18.2935Z" fill="white"/>
<path id="Vector_3" fill-rule="evenodd" clip-rule="evenodd" d="M18.2773 33.3748C18.2773 32.5749 18.5951 31.8076 19.1608 31.242C19.7264 30.6763 20.4936 30.3585 21.2936 30.3585H39.3914C40.1914 30.3585 40.9586 30.6763 41.5243 31.242C42.09 31.8076 42.4077 32.5749 42.4077 33.3748C42.4077 34.1748 42.09 34.942 41.5243 35.5077C40.9586 36.0733 40.1914 36.3911 39.3914 36.3911H21.2936C20.4936 36.3911 19.7264 36.0733 19.1608 35.5077C18.5951 34.942 18.2773 34.1748 18.2773 33.3748Z" fill="white"/>
</g>
<defs>
<clipPath id="clip0_390_251">
<rect width="42.2285" height="36.1958" fill="white" transform="translate(0.17923 0.195358)"/>
</clipPath>
</defs>
</svg>
