<svg width="70" height="47" viewBox="0 0 70 47" fill="none" xmlns="http://www.w3.org/2000/svg">
<path d="M28.569 1.02869H17.9942C17.9942 1.02869 17.8621 29.1178 17.7299 29.7787C17.7299 30.1091 17.3507 33.4137 15.8132 35.1321C14.6896 36.3879 13.4298 36.7183 10.0632 36.7183C7.41953 36.7183 4.11493 35.727 2.92528 35.1982C2.79309 35.727 0.810333 43.9885 0.810333 43.9885C0.810333 43.9885 3.78447 45.9712 8.41091 46.6321C13.0373 47.2931 18.3247 45.9712 18.3247 45.9712C18.3247 45.9712 21.9598 44.6494 24.273 42.0057C26.5862 39.362 28.569 34.0747 28.569 29.7787V1.02869Z" fill="black"/>
<path d="M68.4885 5.52297L63.2672 13.9166C63.2672 13.9166 56.9885 9.48849 52.175 9.48849C49.3879 9.48849 46.0023 10.9425 46.0023 12.7376C46.0023 21.1867 69.6782 15.5689 69.6782 32.9398C69.6782 44.9799 57.319 46.6321 52.175 46.6321C41.7874 46.6321 33.1954 41.0144 33.1954 41.0144L37.8218 31.431C37.8218 31.431 43.4397 36.5312 52.175 36.5312C56.658 36.5312 57.9799 36.054 57.9799 32.9393C57.9799 27.4655 35.1782 29.1178 35.1782 15.5689C35.1782 8.62929 38.9878 0.367798 52.175 0.367798C62.2759 0.367798 68.4885 5.52297 68.4885 5.52297Z" fill="black"/>
</svg>
