<svg width="71" height="75" viewBox="0 0 71 75" fill="none" xmlns="http://www.w3.org/2000/svg">
<path d="M18.0839 28.3901C11.7712 14.65 16.9943 7.75851 16.9943 7.75851C16.9943 7.75851 7.50604 13.7068 10.6493 27.9166C12.1694 35.5172 18.977 41.8179 20.2988 42.9856C26.6215 48.3657 35.8888 49.6654 39.3642 49.3965C55.3276 48.1617 59.6236 35.5172 59.6236 35.5172C59.6236 35.5172 54.3362 43.7125 39.4655 42.7211C32.6568 42.7211 21.2902 35.3189 18.0839 28.3901Z" fill="white"/>
<path d="M30.9397 18.6338C25.8183 8.91212 29.8823 3.02294 29.8823 3.02294C29.8823 3.02294 23.2731 7.0977 25.2127 18.5819C26.7738 24.8325 31.3668 28.6084 32.9709 29.7235C37.7786 33.5276 44.4065 33.8663 46.9177 33.5345C58.6983 32.4109 60.4856 23.2902 60.4856 23.2902C60.4856 23.2902 57.8419 28.3793 46.9622 28.5115C41.2652 28.7865 34.096 24.4674 30.9397 18.6338Z" fill="white"/>
<path d="M41.4482 10.4022C38.2512 4.4539 40.1265 0.818848 40.1265 0.818848C40.1265 0.818848 36.3592 3.13207 37.615 10.4022C38.6063 14.2355 41.4482 16.5325 42.4397 17.2097C45.4137 19.5229 49.4901 19.8718 51.0317 19.6551C58.3017 18.928 58.9627 14.0372 58.9627 14.0372C58.9627 14.0372 57.6593 16.5379 51.0316 16.3505C47.5287 16.2183 43.4178 13.9711 41.4482 10.4022Z" fill="white"/>
<path d="M9.06322 60.6322H5.75863L6.41955 57.9885H9.72414L9.06322 60.6322Z" fill="white"/>
<path d="M4.43679 74.5115C3.44541 74.842 0.471268 74.6437 0.471268 74.6437L0.669544 71.5374C2.6523 71.5374 3.11495 71.5374 3.44541 70.2155C4.68463 65.2586 5.09771 61.954 5.09771 61.954H8.73276C8.73276 61.954 7.74138 66.25 7.08046 70.2155C6.63985 72.8592 5.42817 74.1811 4.43679 74.5115Z" fill="white"/>
<path fill-rule="evenodd" clip-rule="evenodd" d="M24.2643 60.6322C24.2643 59.3103 23.9339 54.6839 17.9857 54.6838C12.0374 54.6838 9.72416 61.6235 9.72416 64.5976C9.72416 65.2586 9.39369 69.885 16.9943 69.885C19.638 69.885 23.6035 69.885 23.6035 69.885V67.2413H22.2816C22.2816 67.2413 24.2643 63.2758 24.2643 60.6322ZM17.9857 57.9885C16.0028 57.9885 13.3592 59.3103 13.3592 64.5976C13.3592 66.7755 14.6811 67.2413 16.9943 67.2413C20.6293 67.2413 20.9597 61.2931 20.9597 60.6322C20.9597 58.319 18.977 57.9885 17.9857 57.9885Z" fill="white"/>
<path d="M29.9694 57.9885H27.0754C26.9786 57.9885 26.8966 58.0524 26.8795 58.1478C26.6646 59.3485 25.3058 66.9412 25.2558 67.2414C24.9804 68.8937 26.5276 69.8851 27.8994 69.8851H34.6753C34.771 69.8851 34.8523 69.8172 34.8706 69.7232L37.106 58.2267C37.13 58.1032 37.0354 57.9885 36.9097 57.9885H34.0151C33.9182 57.9885 33.8353 58.0579 33.8182 58.1532L32.2626 66.8336C32.2229 67.055 32.0406 67.2223 31.8159 67.2332C30.9984 67.273 29.1256 67.2849 28.8908 66.5805C28.6812 65.9517 29.911 59.5386 30.1667 58.2234C30.1908 58.0998 30.0953 57.9885 29.9694 57.9885Z" fill="white"/>
<path fill-rule="evenodd" clip-rule="evenodd" d="M42.1095 57.9883C42.1095 57.9883 39.1089 57.9883 37.6587 62.6147C36.0014 67.9021 37.9787 69.1409 39.4658 69.8848C39.9117 70.1079 46.0748 70.2153 46.7359 69.8848C47.7271 69.8849 47.3968 67.2411 47.3968 67.2411C47.3968 67.2411 41.4481 67.2411 41.1178 67.2411C40.1872 67.2411 40.4569 65.2584 40.4569 65.2584C40.4569 65.2584 47.9442 65.3719 48.0577 65.2584C48.1712 65.1449 48.7186 64.5975 48.7186 61.9538C48.7186 60.6319 48.7186 58.5171 46.075 57.9883C44.5564 57.6845 42.1095 57.9883 42.1095 57.9883ZM43.7617 60.6319C40.7876 60.6319 40.7876 62.6147 40.7876 62.6147H45.414C45.414 62.6147 45.414 60.6319 43.7617 60.6319Z" fill="white"/>
<path d="M62.5977 66.5803V69.8849H58.6322L58.9626 66.5803L57.9713 61.9539H61.2758V64.2671L66.5632 56.6665H70.8592L62.5977 66.5803Z" fill="white"/>
<path d="M52.023 69.8851H48.7184L51.3621 57.9885H59.6236L61.2759 61.2931H54.0057L52.023 69.8851Z" fill="white"/>
</svg>
