<svg width="72" height="38" viewBox="0 0 72 38" fill="none" xmlns="http://www.w3.org/2000/svg">
<path d="M13.8517 29.6292C12.2947 29.6292 10.9454 29.3049 9.80366 28.6562C8.66192 28.0075 7.77966 27.0992 7.15689 25.9316V37.5306H0.929199V8.8054H6.33951V12.1139C7.09202 10.9462 8.03266 10.038 9.16143 9.38925C10.2902 8.74053 11.633 8.41617 13.19 8.41617C14.5653 8.41617 15.8303 8.68863 16.985 9.23356C18.1397 9.77848 19.1387 10.5245 19.982 11.4716C20.8254 12.4188 21.4871 13.5346 21.9671 14.819C22.4472 16.1035 22.6872 17.4852 22.6872 18.9643C22.6872 20.4953 22.4666 21.9095 22.0255 23.2069C21.5844 24.5044 20.9746 25.6267 20.1961 26.5738C19.4177 27.5209 18.4835 28.2669 17.3937 28.8119C16.3038 29.3568 15.1232 29.6292 13.8517 29.6292ZM11.7498 24.3746C12.4245 24.3746 13.0408 24.2254 13.5987 23.927C14.1566 23.6286 14.6431 23.2329 15.0583 22.7399C15.4735 22.2468 15.7913 21.6695 16.0119 21.0078C16.2325 20.3461 16.3427 19.652 16.3427 18.9254C16.3427 18.1729 16.2195 17.4788 15.973 16.843C15.7265 16.2073 15.3891 15.6559 14.961 15.1888C14.5328 14.7217 14.0138 14.3584 13.404 14.0989C12.7943 13.8395 12.139 13.7097 11.4384 13.7097C10.5821 13.7097 9.75825 13.9627 8.96682 14.4687C8.17538 14.9747 7.57207 15.6559 7.15689 16.5122V20.7159C7.57207 21.7538 8.20133 22.6231 9.04466 23.3237C9.888 24.0243 10.7897 24.3746 11.7498 24.3746ZM45.5351 16.1619V29.24H39.3074V17.7577C39.3074 16.4343 39.0479 15.4612 38.5289 14.8385C38.0099 14.2157 37.2963 13.9043 36.3881 13.9043C36.0248 13.9043 35.6291 13.9887 35.201 14.1573C34.7728 14.326 34.3576 14.5725 33.9554 14.8969C33.5532 15.2212 33.1835 15.604 32.8461 16.0451C32.5088 16.4862 32.2493 16.9793 32.0677 17.5242V29.24H25.84V0.826172H32.0677V12.2306C32.8202 11.011 33.8127 10.0704 35.0453 9.40871C36.2778 8.74702 37.6337 8.41617 39.1127 8.41617C40.488 8.41617 41.5973 8.6562 42.4407 9.13625C43.284 9.6163 43.9327 10.2261 44.3868 10.9656C44.8409 11.7052 45.1458 12.5355 45.3015 13.4567C45.4572 14.3779 45.5351 15.2796 45.5351 16.1619ZM62.5834 29.6292C61.0264 29.6292 59.6771 29.3049 58.5354 28.6562C57.3936 28.0075 56.5114 27.0992 55.8886 25.9316V37.5306H49.6609V8.8054H55.0712V12.1139C55.8237 10.9462 56.7644 10.038 57.8931 9.38925C59.0219 8.74053 60.3647 8.41617 61.9217 8.41617C63.2969 8.41617 64.5619 8.68863 65.7167 9.23356C66.8714 9.77848 67.8704 10.5245 68.7137 11.4716C69.5571 12.4188 70.2188 13.5346 70.6988 14.819C71.1789 16.1035 71.4189 17.4852 71.4189 18.9643C71.4189 20.4953 71.1983 21.9095 70.7572 23.2069C70.3161 24.5044 69.7063 25.6267 68.9278 26.5738C68.1494 27.5209 67.2152 28.2669 66.1254 28.8119C65.0355 29.3568 63.8548 29.6292 62.5834 29.6292ZM60.4815 24.3746C61.1562 24.3746 61.7725 24.2254 62.3304 23.927C62.8883 23.6286 63.3748 23.2329 63.79 22.7399C64.2052 22.2468 64.523 21.6695 64.7436 21.0078C64.9642 20.3461 65.0744 19.652 65.0744 18.9254C65.0744 18.1729 64.9512 17.4788 64.7047 16.843C64.4582 16.2073 64.1208 15.6559 63.6927 15.1888C63.2645 14.7217 62.7455 14.3584 62.1357 14.0989C61.5259 13.8395 60.8707 13.7097 60.1701 13.7097C59.3138 13.7097 58.4899 13.9627 57.6985 14.4687C56.9071 14.9747 56.3038 15.6559 55.8886 16.5122V20.7159C56.3038 21.7538 56.933 22.6231 57.7764 23.3237C58.6197 24.0243 59.5214 24.3746 60.4815 24.3746Z" fill="white"/>
</svg>
