<svg width="63" height="63" viewBox="0 0 63 63" fill="none" xmlns="http://www.w3.org/2000/svg">
<path fill-rule="evenodd" clip-rule="evenodd" d="M62.5605 33.5916C63.6468 15.1566 49.3703 -0.0724148 30.8483 0.437364C12.8282 0.933329 -0.618905 15.5959 0.439654 33.5914C1.43678 50.5426 15.8001 62.5632 30.8938 62.5632C46.7968 62.5632 61.5304 51.0728 62.5605 33.5916ZM56.0462 18.2872C58.3918 22.7222 59.5859 27.8932 59.2616 33.3972C58.6409 43.9319 52.4132 52.088 43.972 56.2357C44.7305 55.8563 45.4388 55.4583 45.4388 55.4583L55.0618 27.204C55.0618 27.204 55.3517 26.137 55.4054 25.8822C55.5707 25.0995 55.6897 24.2299 55.6897 24.2299L56.0462 18.2872ZM55.8446 17.913C55.7298 17.7038 55.6124 17.4962 55.4924 17.2904C55.6235 17.5168 55.7473 17.7376 55.8446 17.913ZM54.5174 15.7382C54.3506 15.4914 54.18 15.2474 54.0057 15.0065C54.0716 15.0984 54.2828 15.3942 54.5174 15.7382ZM53.9687 14.9557C53.6521 14.5203 53.3231 14.0948 52.9822 13.6797C53.4669 14.2774 53.884 14.8405 53.9687 14.9557ZM51.3588 11.8729C50.6826 11.1965 50.0057 10.5886 50.0057 10.5886C50.0057 10.5886 48.6839 10.8793 47.3621 11.6724C44.0574 13.6552 45.0488 16.464 45.3793 17.2903C45.6235 17.9006 46.2794 19.0615 47.024 20.3794C48.2951 22.629 49.8246 25.336 50.0057 26.5431C50.2875 28.4218 50.186 29.5304 50.0155 31.3929L50.0057 31.5C49.8627 33.0635 49.3449 35.4655 49.3449 35.4655L45.3793 48.3534L35.4655 18.2816H39.1005V16.2988H22.5776V18.2816H26.5431C26.5431 18.2816 29.8301 28.0073 29.8477 28.1954C30.5086 29.8658 30.5086 30.8172 29.8477 32.4913C29.8345 32.5178 24.5603 48.3534 24.5603 48.3534L14.3161 18.2816H17.9511V16.2988H8.13171C12.915 8.90275 21.1658 4.00971 30.9392 3.74071C39.0394 3.51777 46.2387 6.66003 51.3588 11.8729ZM8.01719 16.4774C7.79157 16.8323 7.57387 17.1929 7.36433 17.5589C7.61526 17.1249 7.87404 16.7061 8.01719 16.4774ZM7.02274 18.1737C6.99065 18.2332 6.95878 18.2929 6.92711 18.3528C6.94039 18.3286 6.95359 18.3049 6.96669 18.2816C6.98478 18.2463 7.0035 18.2102 7.02274 18.1737ZM6.41207 19.3771C6.19656 19.8337 6.03473 20.2049 6.03473 20.2049L19.2334 56.5092C19.2334 56.5092 19.2625 56.5242 19.3166 56.5512C10.8579 52.4477 4.36203 43.9966 3.73855 33.3974C3.44001 28.3222 4.42232 23.5494 6.41207 19.3771ZM23.4734 58.1667C25.8757 58.8806 28.3741 59.2586 30.8938 59.2586C34.7108 59.2586 38.4346 58.5301 41.8631 57.1701C41.2619 57.4049 40.7463 57.5865 40.7463 57.5865L31.8304 33.4827L23.5029 58.1747C23.5029 58.1747 23.493 58.1721 23.4734 58.1667ZM43.0505 56.6686C43.0623 56.6633 43.074 56.658 43.0858 56.6527C43.0792 56.6556 43.0727 56.6584 43.0661 56.6612C43.0609 56.6636 43.0557 56.6661 43.0505 56.6686Z" fill="white"/>
</svg>
